<?xml version="1.0" encoding="UTF-8" standalone="no"?>
<!-- Created with Inkscape (http://www.inkscape.org/) -->

<svg
   xmlns:dc="http://purl.org/dc/elements/1.1/"
   xmlns:cc="http://creativecommons.org/ns#"
   xmlns:rdf="http://www.w3.org/1999/02/22-rdf-syntax-ns#"
   xmlns:svg="http://www.w3.org/2000/svg"
   xmlns="http://www.w3.org/2000/svg"
   xmlns:xlink="http://www.w3.org/1999/xlink"
   xmlns:sodipodi="http://sodipodi.sourceforge.net/DTD/sodipodi-0.dtd"
   xmlns:inkscape="http://www.inkscape.org/namespaces/inkscape"
   width="744.09448819"
   height="1052.3622047"
   id="svg5193"
   version="1.1"
   inkscape:version="0.48.4 r9939"
   sodipodi:docname="boit2-2.svg">
  <defs
     id="defs5195" />
  <sodipodi:namedview
     id="base"
     pagecolor="#ffffff"
     bordercolor="#666666"
     borderopacity="1.0"
     inkscape:pageopacity="0.0"
     inkscape:pageshadow="2"
     inkscape:zoom="0.7"
     inkscape:cx="289.81991"
     inkscape:cy="680.24118"
     inkscape:document-units="px"
     inkscape:current-layer="layer3"
     showgrid="false"
     inkscape:window-width="1366"
     inkscape:window-height="716"
     inkscape:window-x="0"
     inkscape:window-y="0"
     inkscape:window-maximized="1" />
  <metadata
     id="metadata5198">
    <rdf:RDF>
      <cc:Work
         rdf:about="">
        <dc:format>image/svg+xml</dc:format>
        <dc:type
           rdf:resource="http://purl.org/dc/dcmitype/StillImage" />
        <dc:title />
      </cc:Work>
    </rdf:RDF>
  </metadata>
  <g
     inkscape:groupmode="layer"
     id="layer3"
     inkscape:label="layer1"
     style="display:inline">
    <path
       style="fill:#ffccaa;fill-opacity:1;stroke:#000000;stroke-width:9.92125987999999914;stroke-linecap:butt;stroke-linejoin:miter;stroke-miterlimit:4;stroke-opacity:1;stroke-dasharray:none"
       d="m 677.14286,266.6479 c 19.31133,-13.17209 22.14138,1.67109 34.28571,10 7.37034,13.09736 -15.97659,33.76674 -45.71428,54.28571 l -2.85715,-55.71428 14.28572,-1.42858"
       id="path5876"
       inkscape:connector-curvature="0"
       sodipodi:nodetypes="ccccc" />
    <path
       style="fill:#fff4d5;fill-opacity:1;stroke:#000000;stroke-width:10.62992096;stroke-linecap:butt;stroke-linejoin:miter;stroke-miterlimit:4;stroke-opacity:1;stroke-dasharray:none"
       d="m 601.42857,146.64789 c 94.10337,34.84306 59.96113,154.06041 70,128.57144 L 550,299.50504 c 18.31783,-47.1439 16.223,-61.39016 51.42857,-152.85715 z"
       id="path5872"
       inkscape:connector-curvature="0"
       sodipodi:nodetypes="cccc" />
    <path
       style="fill:#ff6600;stroke:#000000;stroke-width:12.40157509;stroke-linecap:butt;stroke-linejoin:miter;stroke-miterlimit:4;stroke-opacity:1;stroke-dasharray:none"
       d="m 287.14286,353.79076 c 70.69965,-1.10718 7.03316,-8.4434 -5.71429,38.57142 45.29048,-25.17636 49.47537,-18.29993 5.71429,31.42857 30.67134,-10.09757 28.04661,-0.68997 37.14285,10e-6 4.23454,24.76191 -16.31958,28.09523 -5.71428,44.28571 24.49874,-5.37095 30.78148,-10.09003 44.28571,-22.85715 l 18.57144,27.14286 c 13.2165,5.2866 58.23774,-20.04682 49.99999,-34.28571 -8.98829,-15.5362 18.32239,40.06564 17.14286,47.14285 l 28.57143,-34.28571 35.71428,48.57143 4.28572,-48.57143 58.57143,31.42858 1.42857,-48.57144 c 0,0 49.15502,25.15097 62.85714,28.57143 -20.05314,-19.52381 -11.0381,-37.61905 -1.42857,-57.14286 l 67.14285,7.14286 L 680,368.07647 l 51.42857,11.42856 c -4.84494,-10.95238 -20.66948,-46.6173 -44.28571,-28.57142 l 18.57143,-24.28571 -48.57143,-5.71429 27.14285,-8.57143 -40,-22.85714 c 12.86016,8.58348 22.31729,3.55484 31.42858,-2.85714 l -10,-7.14286 8.57142,-15.71429 c -43.98346,30.13199 -44.57024,-12.38902 -102.85714,-20 l -224.28571,81.42858 c -51.99935,11.40944 -60,-26.75428 -60,28.57143 z"
       id="path5874"
       inkscape:connector-curvature="0"
       sodipodi:nodetypes="cccccccscccccccccccccccccccccc" />
    <path
       style="fill:#159aab;fill-opacity:1;stroke:#000000;stroke-width:13.11023617;stroke-linecap:butt;stroke-linejoin:miter;stroke-miterlimit:4;stroke-opacity:1;stroke-dasharray:none"
       d="m 62.857143,366.6479 c -34.432897,96.53745 55.864057,177.21415 118.571427,164.28571 -0.0899,-25.41796 11.05668,-28.36282 30,-15.71428 l 7.14286,-21.42858 -30,-11.42857 50,4.28572 c -5.6184,-28.18974 6.15334,-36.50503 27.14286,-34.28572 10.05407,-9.73487 -8.69117,-33.86939 -20,-54.28571 l -24.28572,22.85714 C 181.26521,403.26358 143.8628,384.44316 148.57143,348.07647 l 25.71428,-21.42857 c -2.13735,-5.53449 -99.310038,-38.56814 -55.71428,58.57143 l -11.42857,-38.57143 -20.000003,15.71428 5.714286,18.57143 z"
       id="path5358"
       inkscape:connector-curvature="0"
       sodipodi:nodetypes="cccccccccccccccc" />
    <path
       style="fill:none;stroke:#000000;stroke-width:14.17322826;stroke-linecap:round;stroke-linejoin:miter;stroke-miterlimit:4;stroke-opacity:1;stroke-dasharray:none"
       d="m 438.57143,169.50504 c 39.57357,23.14847 81.40809,27.07884 128.57143,-14.28571"
       id="path5880"
       inkscape:connector-curvature="0"
       sodipodi:nodetypes="cc" />
    <path
       style="fill:none;stroke:#000000;stroke-width:10.62992096;stroke-linecap:round;stroke-linejoin:miter;stroke-miterlimit:4;stroke-opacity:1;stroke-dasharray:none"
       d="m 442.85714,202.36218 c 32.85714,15.74098 65.71429,16.63201 98.57143,5.71429"
       id="path5882"
       inkscape:connector-curvature="0"
       sodipodi:nodetypes="cc" />
    <path
       style="fill:none;stroke:#000000;stroke-width:10.62992096;stroke-linecap:round;stroke-linejoin:miter;stroke-miterlimit:4;stroke-opacity:1;stroke-dasharray:none"
       d="m 455.71429,76.647896 c 20.30201,-11.776927 48.30243,-8.157044 80,2.857143"
       id="path5884"
       inkscape:connector-curvature="0"
       sodipodi:nodetypes="cc" />
    <path
       style="fill:none;stroke:#000000;stroke-width:10.62992096;stroke-linecap:round;stroke-linejoin:miter;stroke-miterlimit:4;stroke-opacity:1;stroke-dasharray:none"
       d="m 381.42857,126.6479 c 10.95238,18.76964 23.33333,36.4694 34.28571,44.28571"
       id="path5886"
       inkscape:connector-curvature="0"
       sodipodi:nodetypes="cc" />
    <path
       style="fill:none;stroke:#000000;stroke-width:10.62992096;stroke-linecap:butt;stroke-linejoin:miter;stroke-miterlimit:4;stroke-opacity:1;stroke-dasharray:none"
       d="m 148.57143,426.6479 c 6.53016,-2.95346 12.31838,0.32725 23.87965,6.72312 15.77429,8.72658 41.46028,20.59295 57.54892,20.41973"
       id="path5890"
       inkscape:connector-curvature="0"
       sodipodi:nodetypes="csc" />
    <path
       style="fill:#ffff95;fill-opacity:1;stroke:#000000;stroke-width:13.11023617;stroke-linecap:butt;stroke-linejoin:miter;stroke-miterlimit:4;stroke-opacity:1;stroke-dasharray:none"
       d="M 394.28572,268.07647 382.85714,106.6479 c 25.22418,-101.7502444 221.63946,-75.227694 222.85715,8.57142 -1.30683,36.4617 -15.3285,52.02986 -31.42858,70.00001 L 590,168.07647 l -41.42857,130 c -54.76425,21.91179 -103.46102,11.33544 -147.14286,0 z"
       id="path5870"
       inkscape:connector-curvature="0"
       sodipodi:nodetypes="cccccccc" />
    <path
       style="fill:#ffd693;fill-opacity:1;stroke:#000000;stroke-width:13.11023617;stroke-linecap:butt;stroke-linejoin:round;stroke-miterlimit:4;stroke-opacity:1;stroke-dasharray:none"
       d="m 150,346.6479 c 22.0017,-8.48297 47.52312,-31.04485 77.14286,-70 l 4.28571,24.28571 c -11.53797,-36.95814 64.69492,-90.46192 105.71429,-170 26.37635,-19.60523 19.88237,-10.5995 42.85714,-20 l 7.14285,31.42857 L 370,153.79075 c -24.58971,24.73275 -1.68513,90.6567 -34.28571,108.57143 L 320,290.93361 c 26.19048,-33.54569 52.38095,-25.89465 78.57143,-18.57143 l 15.71428,10 32.85715,0 c 20.47619,-11.26757 38.09524,-9.18001 58.57143,-1.42857 L 518.57143,302.36218 480,318.07647 447.14286,315.21933 c -20.29643,5.09429 -51.13184,18.61975 -54.28572,10 -27.05458,18.18351 -54.85143,35.62475 -104.28571,31.42857 -18.64154,10.68653 -43.6782,40.55841 -65.71429,61.42857 C 152.45949,396.46275 140.82799,372.05065 150,346.6479 z"
       id="path5868"
       inkscape:connector-curvature="0"
       sodipodi:nodetypes="cccccccccccccccccccc" />
    <path
       style="fill:none;stroke:#000000;stroke-width:10.62992096;stroke-linecap:butt;stroke-linejoin:miter;stroke-miterlimit:4;stroke-opacity:1;stroke-dasharray:none"
       d="m 582.85714,192.36218 c 19.39197,2.5128 24.88488,20.35322 40,25.71429"
       id="path5892"
       inkscape:connector-curvature="0"
       sodipodi:nodetypes="cc" />
    <path
       style="fill:none;stroke:#000000;stroke-width:10.62992096;stroke-linecap:butt;stroke-linejoin:miter;stroke-miterlimit:4;stroke-opacity:1;stroke-dasharray:none"
       d="m 574.28571,206.6479 c 12.57641,1.51385 15.50997,6.59911 24.28572,15.71428"
       id="path5894"
       inkscape:connector-curvature="0"
       sodipodi:nodetypes="cc" />
    <path
       style="fill:none;stroke:#000000;stroke-width:11.33858299;stroke-linecap:round;stroke-linejoin:miter;stroke-miterlimit:4;stroke-opacity:1;stroke-dasharray:none"
       d="m 442.85714,343.79075 c 39.45892,-3.68708 71.78143,23.55031 121.42857,-24.28571"
       id="path5896"
       inkscape:connector-curvature="0"
       sodipodi:nodetypes="cc" />
    <path
       style="fill:none;stroke:#000000;stroke-width:10.62992096;stroke-linecap:butt;stroke-linejoin:miter;stroke-miterlimit:4;stroke-opacity:1;stroke-dasharray:none"
       d="m 574.28571,295.21933 1.42858,0 c -9.29173,10.9792 10.42605,6.14034 11.42857,7.14285 0.33671,0.33672 -0.33672,1.09186 0,1.42857 0.67343,0.67344 2.18371,-0.67343 2.85714,0 0.33672,0.33672 -0.33672,1.09186 0,1.42858 2.95577,2.95576 -0.11554,-4.51681 2.85714,1.42857 0.21296,0.42591 -0.21296,1.00265 0,1.42857 0.30117,0.60234 1.12741,0.82623 1.42857,1.42857 0.21296,0.42592 -0.33671,1.09185 0,1.42857 0.33672,0.33672 1.09186,-0.33672 1.42858,0 0.33671,0.33672 -0.33672,1.09185 0,1.42857 0.67343,0.67344 2.1837,-0.67343 2.85714,0 0.33672,0.33672 -0.21296,1.00266 0,1.42857 0.74517,1.49035 3.45509,2.2592 2.85714,2.85715 -0.47619,0.47619 -1.90476,-0.95238 -1.42857,-1.42857 1.66149,-1.66149 1.42857,2.08034 1.42857,2.85714 0,0.47619 0,0.95238 0,1.42857 0,0.47619 -0.33672,1.09185 0,1.42857 0.33672,0.33672 1.09186,-0.33672 1.42857,0 0.33672,0.33672 0,0.95238 0,1.42857 0,0.47619 0,0.95238 0,1.42857"
       id="path5917"
       inkscape:connector-curvature="0" />
    <path
       style="fill:none;stroke:#000000;stroke-width:10.62992096;stroke-linecap:butt;stroke-linejoin:miter;stroke-miterlimit:4;stroke-opacity:1;stroke-dasharray:none"
       d="m 458.57143,365.21933 c 3.44509,12.138 10.16059,26.45627 2.85714,31.42857"
       id="path5980"
       inkscape:connector-curvature="0"
       sodipodi:nodetypes="cc" />
    <path
       style="fill:none;stroke:#000000;stroke-width:10.2755909;stroke-linecap:butt;stroke-linejoin:miter;stroke-miterlimit:4;stroke-opacity:1;stroke-dasharray:none"
       d="m 488.57143,370.93361 0,25.71429"
       id="path5982"
       inkscape:connector-curvature="0" />
    <path
       style="fill:none;stroke:#000000;stroke-width:10.62992096;stroke-linecap:butt;stroke-linejoin:miter;stroke-miterlimit:4;stroke-opacity:1;stroke-dasharray:none"
       d="m 508.57143,368.07647 -2.85714,22.85714"
       id="path5984"
       inkscape:connector-curvature="0" />
    <path
       style="fill:none;stroke:#000000;stroke-width:11.33858299;stroke-linecap:butt;stroke-linejoin:miter;stroke-miterlimit:4;stroke-opacity:1;stroke-dasharray:none"
       d="M 388.57143,395.21933 C 382.38095,409.8654 376.19048,422.44098 370,429.50504"
       id="path5986"
       inkscape:connector-curvature="0"
       sodipodi:nodetypes="cc" />
    <path
       style="fill:none;stroke:#000000;stroke-width:10.98425197;stroke-linecap:butt;stroke-linejoin:miter;stroke-miterlimit:4;stroke-opacity:1;stroke-dasharray:none"
       d="m 402.85714,408.07647 c -11.7241,12.75863 -16.84083,27.71972 -17.14285,44.28571"
       id="path5988"
       inkscape:connector-curvature="0"
       sodipodi:nodetypes="cc" />
    <path
       style="fill:none;stroke:#000000;stroke-width:9.92125988;stroke-linecap:butt;stroke-linejoin:miter;stroke-miterlimit:4;stroke-opacity:1;stroke-dasharray:none"
       d="m 418.57143,416.6479 c -3.06358,9.69446 -12.40278,20.95783 -1.42857,27.14285"
       id="path5990"
       inkscape:connector-curvature="0"
       sodipodi:nodetypes="cc" />
    <path
       style="fill:none;stroke:#000000;stroke-width:9.92125988;stroke-linecap:butt;stroke-linejoin:miter;stroke-miterlimit:4;stroke-opacity:1;stroke-dasharray:none"
       d="m 608.57143,300.93361 c 10.03798,11.31464 23.34509,12.82187 37.14286,12.85714"
       id="path5992"
       inkscape:connector-curvature="0"
       sodipodi:nodetypes="cc" />
    <path
       style="fill:none;stroke:#000000;stroke-width:11.69291306;stroke-linecap:butt;stroke-linejoin:miter;stroke-miterlimit:4;stroke-opacity:1;stroke-dasharray:none"
       d="m 582.85714,372.36219 c 7.6624,8.25312 1.5569,15.3275 37.14286,27.14285"
       id="path5994"
       inkscape:connector-curvature="0"
       sodipodi:nodetypes="cc" />
    <path
       style="fill:none;stroke:#000000;stroke-width:10.62992096;stroke-linecap:butt;stroke-linejoin:miter;stroke-miterlimit:4;stroke-opacity:1;stroke-dasharray:none"
       d="m 604.28572,362.36219 c 6.60991,7.61905 9.51517,15.23809 34.28571,22.85714"
       id="path5996"
       inkscape:connector-curvature="0"
       sodipodi:nodetypes="cc" />
    <path
       style="fill:none;stroke:#000000;stroke-width:9.92125988;stroke-linecap:butt;stroke-linejoin:miter;stroke-miterlimit:4;stroke-opacity:1;stroke-dasharray:none"
       d="m 624.28572,349.50504 c 9.08683,6.66667 5.85045,13.33333 28.57143,20"
       id="path5998"
       inkscape:connector-curvature="0"
       sodipodi:nodetypes="cc" />
    <path
       style="fill:none;stroke:#000000;stroke-width:7.08661413;stroke-linecap:butt;stroke-linejoin:miter;stroke-miterlimit:4;stroke-opacity:1;stroke-dasharray:none"
       d="m 678.57143,288.07647 12.85714,-10 c 4.59774,4.39516 8.08329,9.53177 1.42857,21.42857"
       id="path6006"
       inkscape:connector-curvature="0"
       sodipodi:nodetypes="ccc" />
    <path
       style="fill:none;stroke:#000000;stroke-width:7.08661413;stroke-linecap:butt;stroke-linejoin:miter;stroke-miterlimit:4;stroke-opacity:1;stroke-dasharray:none"
       d="m 498.57143,295.21933 c -26.13176,-9.16721 -18.16135,6.30512 -22.85714,11.42856"
       id="path6002"
       inkscape:connector-curvature="0"
       sodipodi:nodetypes="cc" />
    <path
       style="fill:none;stroke:#000000;stroke-width:10.62992096;stroke-linecap:round;stroke-linejoin:miter;stroke-miterlimit:4;stroke-opacity:1;stroke-dasharray:none"
       d="m 390,136.6479 c 11.86442,23.24184 12.47986,28.5653 28.57143,37.14285"
       inkscape:connector-curvature="0"
       sodipodi:nodetypes="cc"
       id="path3017" />
    <path
       style="fill:none;stroke:#000000;stroke-width:10.62992096;stroke-linecap:round;stroke-linejoin:miter;stroke-miterlimit:4;stroke-opacity:1;stroke-dasharray:none"
       d="m 437.14286,166.6479 c 62.17948,31.28537 96.811,18.29206 131.42856,-11.42858"
       id="path3856"
       inkscape:connector-curvature="0"
       sodipodi:nodetypes="cc" />
    <path
       style="fill:none;stroke:#000000;stroke-width:7.08661413;stroke-linecap:butt;stroke-linejoin:miter;stroke-miterlimit:4;stroke-opacity:1;stroke-dasharray:none"
       d="m 444.28571,205.21933 c 30.95238,13.13692 61.90477,14.94453 92.85715,1.42857"
       id="path3858"
       inkscape:connector-curvature="0"
       sodipodi:nodetypes="cc" />
    <path
       style="fill:#cc4f25;fill-opacity:0.68333333;fill-rule:nonzero;stroke:#000000;stroke-width:10.12373447;stroke-linecap:round;stroke-linejoin:round;stroke-miterlimit:4;stroke-opacity:1;stroke-dasharray:none"
       d="m 370.67245,259.30626 c -4.71429,-0.72792 -11.24712,-0.99099 -14.51741,-0.58461 l -5.94598,0.73887 3.3945,-6.07341 c 4.86647,-8.70706 7.31014,-21.04202 9.91043,-50.02502 2.51777,-28.06317 5.43145,-38.82328 11.89179,-43.91583 l 3.8381,-3.02549 1.0204,14.0644 c 0.56122,7.73542 1.35144,20.8144 1.75605,29.0644 0.64606,13.17335 1.48767,23.99045 4.19582,53.92857 0.77681,8.58758 1.2292,8.41796 -15.5437,5.82812 z"
       id="path3860"
       inkscape:connector-curvature="0" />
    <path
       style="fill:none;stroke:#000000;stroke-width:9.92125988;stroke-linecap:butt;stroke-linejoin:miter;stroke-miterlimit:4;stroke-opacity:1;stroke-dasharray:none"
       d="m 457.14286,75.219325 c 14.51051,-6.228547 31.25595,-11.06027 75.71428,1.428572 l 0,0"
       id="path3862"
       inkscape:connector-curvature="0"
       sodipodi:nodetypes="ccc" />
    <path
       style="fill:none;stroke:#000000;stroke-width:10.62992096;stroke-linecap:butt;stroke-linejoin:miter;stroke-miterlimit:4;stroke-opacity:1;stroke-dasharray:none"
       d="m 561.42857,290.93361 -7.14286,20"
       id="path3864"
       inkscape:connector-curvature="0" />
  </g>
  <g
     inkscape:groupmode="layer"
     id="layer6"
     inkscape:label="Boit1"
     sodipodi:insensitive="true"
     style="opacity:0.29047618;display:none">
    <g
       id="g4941"
       transform="translate(20.216556,54.758872)">
      <g
         id="layer1-3"
         inkscape:label="Layer 1">
        <path
           inkscape:connector-curvature="0"
           id="path4430"
           d="M 391.42857,300.93361 504.28571,115.21933 345.71429,143.79075 362.85714,282.36218 z"
           style="fill:#cc4f25;fill-opacity:0.68235294;stroke:#000000;stroke-width:0;stroke-linecap:butt;stroke-linejoin:miter;stroke-miterlimit:4;stroke-opacity:1;stroke-dasharray:none" />
        <path
           sodipodi:nodetypes="cccccscc"
           inkscape:connector-curvature="0"
           id="path3824"
           d="m 624.28571,310.93361 -2.85714,-8.57143 c 20.79597,-9.98108 19.12527,-32.44363 5.71429,-61.42857 l 15.71428,14.28572 c 3.34568,-32.58688 29.19651,-27.24804 57.14286,-14.28571 4.46173,13.89752 2.19489,25.02132 -7.14285,29.99999 -29.67781,15.82354 -35.09328,20.04856 -40.00001,35.71428 z"
           style="fill:none;stroke:#000000;stroke-width:9.92125988;stroke-linecap:butt;stroke-linejoin:miter;stroke-miterlimit:4;stroke-opacity:1;stroke-dasharray:none" />
        <path
           sodipodi:nodetypes="ccccccccccccccccccccccccccccc"
           inkscape:connector-curvature="0"
           id="path3854"
           d="m 609.99999,305.21932 -25.71428,-25.71428 -150,-38.57143 -150.48876,119.2999 36.20305,20.7001 -62.85714,40 c 47.76155,4.19132 57.14286,1.42857 57.14286,1.42857 0,0 -23.74167,28.29884 -24.28574,41.42857 31.01907,10.10944 30.56344,-14.02406 48.57146,-18.57142 l 8.57142,65.71428 c 29.27488,-1.92643 29.25764,-42.43712 47.14287,-67.14285 16.77566,16.95926 14.02749,57.72802 15.71427,67.14284 l 41.42857,-31.42856 44.28571,50 15.71429,-61.42857 c 36.07335,21.0119 30.73978,38.69164 57.14286,48.57142 -7.48777,-19.25011 -12.05807,-39.4727 1.42857,-65.71428 l 54.28571,27.14286 c -7.54955,-15.5794 -6.73564,-28.13529 4.28572,-58.57143 l 48.57142,1.42857 L 658.57143,376.6479 690,376.64789 c -13.64238,-20.95743 4.09233,-21.88396 -28.57142,-31.42856 l 44.28571,-11.42857 -45.98175,-12.65549 28.83889,-20.20166 -51.42857,2.85715 54.28571,-22.85714 L 620,300.93361"
           style="fill:#ff6600;fill-opacity:1;stroke:#000000;stroke-width:12.40157509;stroke-linecap:butt;stroke-linejoin:miter;stroke-miterlimit:4;stroke-opacity:1;stroke-dasharray:none" />
        <path
           sodipodi:nodetypes="ccccc"
           inkscape:connector-curvature="0"
           id="path3027"
           d="m 450,86.647897 82.85714,0 50,40.000003 31.42857,47.14285 c -25.4435,16.26203 -40.02801,3.56675 -54.28571,-10"
           style="fill:none;stroke:#000000;stroke-width:10.62992096;stroke-linecap:butt;stroke-linejoin:round;stroke-miterlimit:4;stroke-opacity:1;stroke-dasharray:none" />
        <path
           sodipodi:nodetypes="ccc"
           inkscape:connector-curvature="0"
           id="path3029"
           d="m 484.28571,375.21933 c 6.11125,-9.9901 -5.10366,-13.70729 28.57143,-27.14287 6.73604,8.78966 17.30539,14.25549 5.71429,15.71429"
           style="fill:none;stroke:#000000;stroke-width:7.08661413;stroke-linecap:butt;stroke-linejoin:miter;stroke-miterlimit:4;stroke-opacity:1;stroke-dasharray:none" />
        <path
           sodipodi:nodetypes="ccccccccsccccccccc"
           inkscape:connector-curvature="0"
           id="path3030"
           d="m 187.14286,258.07647 c -32.97226,-29.04134 -55.63569,-9.87425 -71.42857,-11.42857 -12.17854,27.09225 -15.32302,51.92599 2.85714,71.42857 C 117.40974,302.77213 98.377193,286.79873 110,263.79075 l -37.142858,17.14286 2.857142,42.85714 -48.571427,-20 C 7.8883673,397.1462 90.938518,455.49363 174.28572,476.6479 c -2.64447,2.64446 -12.14719,-18.69001 1.42856,-31.42857 7.11063,-6.67213 30.00001,0 30.00001,0 l 17.14285,-27.14287 -31.42857,-21.42856 47.14286,24.28572 c 5.48848,-10.1404 -17.94367,-28.06493 21.42857,-31.42858 17.39394,13.44462 5.13793,-49.81052 -15.71428,-44.28572 l -25.71429,22.85715 c -31.04363,-13.64731 -68.7845,-15.38841 -67.14286,-87.14286 z"
           style="fill:#159aab;fill-opacity:0.97777776;stroke:#000000;stroke-width:13.11023617;stroke-linecap:butt;stroke-linejoin:round;stroke-miterlimit:4;stroke-opacity:1;stroke-dasharray:none" />
        <path
           sodipodi:nodetypes="ccccc"
           inkscape:connector-curvature="0"
           id="path3822"
           d="M 434.28572,88.076469 C 515.56153,48.772059 620.69448,71.861029 652.85714,203.79075 661.38501,282.47251 634.74052,283.50244 610,325.21932 L 464.28571,265.21933 z"
           style="fill:#fff4d5;fill-opacity:1;stroke:#000000;stroke-width:10.62992096;stroke-linecap:butt;stroke-linejoin:miter;stroke-miterlimit:4;stroke-opacity:1;stroke-dasharray:none" />
        <path
           sodipodi:nodetypes="cccc"
           inkscape:connector-curvature="0"
           id="path3850"
           d="m 641.42857,312.36218 c 7.91122,-23.62551 6.38062,-37.80918 7.14286,-54.28571 l 0,21.42857 C 658.09524,262.31338 670.47619,251.5969 680,256.6479"
           style="fill:none;stroke:#000000;stroke-width:7.79527569;stroke-linecap:round;stroke-linejoin:round;stroke-miterlimit:4;stroke-opacity:1;stroke-dasharray:none" />
        <path
           sodipodi:nodetypes="cccccccccc"
           inkscape:connector-curvature="0"
           id="path3866"
           d="m 510,270.93361 c -1.34799,22.34066 3.07697,50.36628 24.28571,61.42858 25.84046,4.28571 33.43566,-10e-6 62.85715,4.2857 l 55.71428,24.28573 -20,-30.00001 c 22.31016,15.77683 38.06527,20.1984 52.85715,-12.85714 -20.2076,3.40664 -34.49643,-2.06489 -47.14286,-10 l 35.71428,-15.71428 C 635.7696,293.76396 571.02034,294.62662 557.14285,253.79076 531.69399,245.50297 524.46134,260.90887 510,270.93361 z"
           style="fill:#ff6600;stroke:#000000;stroke-width:8.85826778;stroke-linecap:butt;stroke-linejoin:miter;stroke-miterlimit:4;stroke-opacity:1;stroke-dasharray:none" />
        <path
           transform="translate(-42.857142,4.2857142)"
           d="m 634.28574,230.21933 a 102.85715,89.285721 0 1 1 -205.7143,0 102.85715,89.285721 0 1 1 205.7143,0 z"
           sodipodi:ry="89.285721"
           sodipodi:rx="102.85715"
           sodipodi:cy="230.21933"
           sodipodi:cx="531.42859"
           id="path3802"
           style="fill:#ffff95;fill-opacity:1;fill-rule:nonzero;stroke:#000000;stroke-width:13.11023617;stroke-linecap:round;stroke-linejoin:round;stroke-miterlimit:4;stroke-opacity:1;stroke-dasharray:none"
           sodipodi:type="arc" />
        <path
           sodipodi:nodetypes="ccccc"
           inkscape:connector-curvature="0"
           id="path3826"
           d="m 648.57143,230.93361 c 10.32266,-9.41626 -5.68741,-27.61009 -17.14286,-44.28571 30.08628,7.57591 45.62775,26.70994 52.85715,45.71429 -13.48688,-6.00581 -26.01497,-7.2177 -35.71429,5.71428 z"
           style="fill:#d45500;stroke:#000000;stroke-width:9.92125988;stroke-linecap:butt;stroke-linejoin:miter;stroke-miterlimit:4;stroke-opacity:1;stroke-dasharray:none" />
        <path
           sodipodi:nodetypes="cc"
           inkscape:connector-curvature="0"
           id="path3828"
           d="m 589.24292,211.6051 22.94273,18.65702"
           style="fill:none;stroke:#000000;stroke-width:10.20123863;stroke-linecap:round;stroke-linejoin:miter;stroke-miterlimit:4;stroke-opacity:1;stroke-dasharray:none" />
        <path
           sodipodi:nodetypes="cc"
           inkscape:connector-curvature="0"
           id="path3830"
           d="m 437.14286,380.93361 c 25.57318,11.76365 36.49054,8.87149 51.42857,10"
           style="fill:none;stroke:#000000;stroke-width:13.46456718;stroke-linecap:butt;stroke-linejoin:miter;stroke-miterlimit:4;stroke-opacity:1;stroke-dasharray:none" />
        <path
           sodipodi:nodetypes="cc"
           inkscape:connector-curvature="0"
           id="path3832"
           d="m 542.85714,352.36218 c 4.33534,-3.7599 9.57895,-6.61152 21.42857,-2.85714"
           style="fill:none;stroke:#000000;stroke-width:1px;stroke-linecap:butt;stroke-linejoin:miter;stroke-opacity:1" />
        <path
           sodipodi:nodetypes="cc"
           inkscape:connector-curvature="0"
           id="path3834"
           d="M 571.42857,366.6479 C 571.23674,351.45946 543.516,348.99295 535.71428,345.21932"
           style="fill:none;stroke:#000000;stroke-width:12.40157509;stroke-linecap:butt;stroke-linejoin:miter;stroke-miterlimit:4;stroke-opacity:1;stroke-dasharray:none" />
        <path
           inkscape:connector-curvature="0"
           id="path3852"
           d="m 575.71429,279.50504 51.42857,4.28571"
           style="fill:none;stroke:#000000;stroke-width:1px;stroke-linecap:butt;stroke-linejoin:miter;stroke-opacity:1" />
        <path
           sodipodi:nodetypes="ccccsccccccccccccccccc"
           inkscape:connector-curvature="0"
           id="path3025"
           d="m 154.28571,280.93361 c 15.40473,-10.35237 34.29918,-22.10062 68.57143,-40 24.02485,-40.47619 56.19625,-80.95238 114.28572,-121.42857 L 450,85.219325 c 0,0 56.31744,6.046799 80,20.000005 16.83632,9.91956 40,42.85714 40,42.85714 l 22.85714,18.57143 c -11.43778,4.9358 -16.50112,21.34559 -45.71428,-5.71429 C 529.28467,153.07752 524.20071,145.30432 510,133.79076 c -29.71391,12.84827 -57.8749,3.98611 -80,-1.42858 0.98743,26.39594 -22.93617,26.24384 -44.28572,22.85715 3.33389,14.22855 -12.11653,30.26571 -14.28571,15.71428 27.55742,78.77664 -37.26413,89.48458 -77.14286,118.57143 L 360,255.21933 c 32.60749,20 58.7218,40 68.57143,60 22.87215,5.36557 51.79497,1.9675 50,21.42857 42.93373,-17.2271 55.97027,6.00413 61.42857,30 -13.1547,0.0833 -24.19718,-1.10074 -55.71429,10 -21.42839,-10.00018 -44.42806,-18.42908 -77.14285,-17.14286 -31.36812,-15.264 -86.68677,-20.26349 -144.28572,-24.28571 l -47.14285,28.57142 c -45.93763,-4.11618 -65.00652,-33.03428 -61.42858,-82.85714 z"
           style="fill:#ffd693;fill-opacity:1;stroke:#000000;stroke-width:13.11023617;stroke-linecap:butt;stroke-linejoin:miter;stroke-miterlimit:4;stroke-opacity:1;stroke-dasharray:none" />
        <path
           sodipodi:open="true"
           sodipodi:end="5.1708795"
           sodipodi:start="3.8653491"
           transform="matrix(2.3861959,0,0,4.1263356,-664.95004,-501.50042)"
           d="m 458.23652,166.72439 a 32.85714,17.142857 0 0 1 39.16303,-4.0203"
           sodipodi:ry="17.142857"
           sodipodi:rx="32.85714"
           sodipodi:cy="178.07646"
           sodipodi:cx="482.85715"
           id="path3816"
           style="fill:#159aab;fill-opacity:0.38888891;fill-rule:nonzero;stroke:#000000;stroke-width:4.04362917;stroke-linecap:round;stroke-linejoin:round;stroke-miterlimit:4;stroke-opacity:1;stroke-dasharray:none"
           sodipodi:type="arc" />
        <path
           sodipodi:open="true"
           transform="matrix(0.91606542,0,0,0.80922807,38.556334,121.29375)"
           sodipodi:end="2.1566029"
           sodipodi:start="0.47299664"
           d="M 551.12121,203.31458 A 67.857147,42.857143 0 0 1 453.198,219.50217"
           sodipodi:ry="42.857143"
           sodipodi:rx="67.857147"
           sodipodi:cy="183.79076"
           sodipodi:cx="490.71429"
           id="path3814"
           style="fill:#159aab;fill-opacity:0.38888891;fill-rule:nonzero;stroke:#000000;stroke-width:13.11023617;stroke-linecap:round;stroke-linejoin:round;stroke-miterlimit:4;stroke-opacity:1;stroke-dasharray:none"
           sodipodi:type="arc" />
      </g>
      <g
         style="opacity:0"
         inkscape:label="sobre"
         id="layer4">
        <image
           width="564.28564"
           height="564.28564"
           xlink:href="file:///home/thomas/Images/Mes%20dessins/Infographie/Jeu%20bi%C3%A8re/sobre.png"
           id="image4492"
           x="182.85712"
           y="9.505022" />
      </g>
      <g
         style="opacity:0.2953125;display:none"
         inkscape:label="Matrice"
         id="layer2">
        <image
           width="733.28571"
           height="556.42645"
           xlink:href="file:///home/thomas/Images/Mes%20dessins/Infographie/Jeu%20bi%C3%A8re/boit1.png"
           id="image3867"
           x="7.6428614"
           y="5.0050402" />
        <path
           inkscape:connector-curvature="0"
           id="path3028"
           d="M 197.14286,255.21933 120,236.6479 l -5.71429,71.42857 -7.14285,-41.42857 -25.714289,17.14285 7.142858,37.14286 -35.714286,-15.71428 91.428567,167.14285 7.14286,-32.85714 38.57143,22.85714 1.42857,-31.42857 -18.57143,-4.28571 42.85715,7.14285 27.14285,-44.28571 -8.57143,-34.28571 -15.71428,10"
           style="fill:none;stroke:#000000;stroke-width:1px;stroke-linecap:butt;stroke-linejoin:miter;stroke-opacity:1" />
      </g>
      <g
         style="opacity:0.67619048;display:none"
         inkscape:label="Boit2"
         id="layer3-34">
        <g
           transform="translate(-28.170167,-45.585011)"
           id="g4310">
          <g
             id="layer3-3"
             inkscape:label="layer1"
             style="display:inline">
            <path
               style="fill:#fff4d5;fill-opacity:1;stroke:#000000;stroke-width:9.92125988;stroke-linecap:butt;stroke-linejoin:miter;stroke-miterlimit:4;stroke-opacity:1;stroke-dasharray:none"
               d="m 677.14286,266.6479 c 19.31133,-13.17209 22.14138,1.67109 34.28571,10 7.37034,13.09736 -15.97659,33.76674 -45.71428,54.28571 l -2.85715,-55.71428 14.28572,-1.42858"
               id="path5876-1"
               inkscape:connector-curvature="0"
               sodipodi:nodetypes="ccccc" />
            <path
               style="fill:#159aab;fill-opacity:0.38888891;stroke:#000000;stroke-width:13.11023617;stroke-linecap:butt;stroke-linejoin:miter;stroke-miterlimit:4;stroke-opacity:1;stroke-dasharray:none"
               d="m 62.857143,366.6479 c -34.432897,96.53745 55.864057,177.21415 118.571427,164.28571 -0.0899,-25.41796 11.05668,-28.36282 30,-15.71428 l 7.14286,-21.42858 -30,-11.42857 50,4.28572 c -5.6184,-28.18974 6.15334,-36.50503 27.14286,-34.28572 10.05407,-9.73487 -8.69117,-33.86939 -20,-54.28571 l -24.28572,22.85714 C 181.26521,403.26358 143.8628,384.44316 148.57143,348.07647 l 25.71428,-21.42857 c -2.13735,-5.53449 -99.310038,-38.56814 -55.71428,58.57143 l -11.42857,-38.57143 -20.000003,15.71428 5.714286,18.57143 z"
               id="path5358-0"
               inkscape:connector-curvature="0"
               sodipodi:nodetypes="cccccccccccccccc" />
            <path
               style="fill:#fff4d5;fill-opacity:1;stroke:#000000;stroke-width:10.62992096;stroke-linecap:butt;stroke-linejoin:miter;stroke-miterlimit:4;stroke-opacity:1;stroke-dasharray:none"
               d="m 601.42857,146.64789 c 73.10623,16.17894 52.81229,132.62652 75.71429,118.57144 L 550,299.50504 c 18.31783,-47.1439 16.223,-61.39016 51.42857,-152.85715 z"
               id="path5872-0"
               inkscape:connector-curvature="0"
               sodipodi:nodetypes="cccc" />
            <path
               style="fill:#ff6600;stroke:#000000;stroke-width:12.40157509;stroke-linecap:butt;stroke-linejoin:miter;stroke-miterlimit:4;stroke-opacity:1;stroke-dasharray:none"
               d="m 260,385.21933 32.85714,12.85714 -31.42857,31.42857 35.71429,-7.14286 -7.14286,20 c 30.67134,-10.09757 33.7609,-6.40426 42.85714,-5.71428 4.23454,24.76191 -20.6053,30.95238 -10,47.14286 24.49874,-5.37095 36.49577,-17.23289 50,-30.00001 l 1.42858,32.85714 c 13.2165,5.2866 56.80917,-17.18967 48.57142,-31.42856 -8.98829,-15.5362 21.17953,30.06564 20,37.14285 L 478.57143,466.6479 512.85714,499.50504 520,468.07647 c 24.32834,2.23877 48.00744,3.01674 87.14286,38.57143 -11.18474,-19.04762 -22.26952,-38.09524 -18.57143,-57.14286 25.10437,11.02196 46.29788,19.43668 60,22.85714 -20.05314,-19.52381 -9.60953,-39.04762 0,-58.57143 l 55.71428,-2.85714 -21.42857,-28.57143 34.28572,0 c -4.84494,-10.95238 -26.38377,-21.90476 -50,-32.85714 L 680,338.07647 l -22.85714,-5.71429 27.14285,-20 -40,-22.85714 c 12.86016,8.58348 22.31729,3.55484 31.42858,-2.85714 l -10,-7.14286 8.57142,-15.71429 c -43.98346,30.13199 -44.57024,-12.38902 -102.85714,-20 L 315.71429,356.6479 c 0,0 -10.16736,16.55414 -18.57143,17.14286 C 282.1212,374.84305 260,348.07647 260,348.07647 z"
               id="path5874-6"
               inkscape:connector-curvature="0"
               sodipodi:nodetypes="cccccccccscccccccccccccccccccccscc" />
            <path
               style="fill:none;stroke:#000000;stroke-width:14.17322826;stroke-linecap:round;stroke-linejoin:miter;stroke-miterlimit:4;stroke-opacity:1;stroke-dasharray:none"
               d="m 438.57143,169.50504 c 39.57357,23.14847 81.40809,27.07884 128.57143,-14.28571"
               id="path5880-7"
               inkscape:connector-curvature="0"
               sodipodi:nodetypes="cc" />
            <path
               style="fill:none;stroke:#000000;stroke-width:10.62992096;stroke-linecap:round;stroke-linejoin:miter;stroke-miterlimit:4;stroke-opacity:1;stroke-dasharray:none"
               d="m 442.85714,202.36218 c 32.85714,15.74098 65.71429,16.63201 98.57143,5.71429"
               id="path5882-0"
               inkscape:connector-curvature="0"
               sodipodi:nodetypes="cc" />
            <path
               style="fill:none;stroke:#000000;stroke-width:10.62992096;stroke-linecap:round;stroke-linejoin:miter;stroke-miterlimit:4;stroke-opacity:1;stroke-dasharray:none"
               d="m 455.71429,76.647896 c 20.30201,-11.776927 48.30243,-8.157044 80,2.857143"
               id="path5884-7"
               inkscape:connector-curvature="0"
               sodipodi:nodetypes="cc" />
            <path
               style="fill:none;stroke:#000000;stroke-width:10.62992096;stroke-linecap:round;stroke-linejoin:miter;stroke-miterlimit:4;stroke-opacity:1;stroke-dasharray:none"
               d="m 381.42857,126.6479 c 10.95238,18.76964 23.33333,36.4694 34.28571,44.28571"
               id="path5886-6"
               inkscape:connector-curvature="0"
               sodipodi:nodetypes="cc" />
            <path
               style="fill:none;stroke:#000000;stroke-width:10.62992096;stroke-linecap:butt;stroke-linejoin:miter;stroke-miterlimit:4;stroke-opacity:1;stroke-dasharray:none"
               d="m 148.57143,426.6479 c 6.53016,-2.95346 12.31838,0.32725 23.87965,6.72312 15.77429,8.72658 41.46028,20.59295 57.54892,20.41973"
               id="path5890-2"
               inkscape:connector-curvature="0"
               sodipodi:nodetypes="csc" />
            <path
               style="fill:#ffff95;fill-opacity:1;stroke:#000000;stroke-width:13.11023617;stroke-linecap:butt;stroke-linejoin:miter;stroke-miterlimit:4;stroke-opacity:1;stroke-dasharray:none"
               d="M 394.28572,268.07647 382.85714,106.6479 c 25.22418,-101.7502444 221.63946,-75.227694 222.85715,8.57142 -1.30683,36.4617 -15.3285,52.02986 -31.42858,70.00001 L 590,168.07647 l -41.42857,130 c -54.76425,21.91179 -103.46102,11.33544 -147.14286,0 z"
               id="path5870-8"
               inkscape:connector-curvature="0"
               sodipodi:nodetypes="cccccccc" />
            <path
               style="fill:#ffd693;fill-opacity:1;stroke:#000000;stroke-width:13.11023617;stroke-linecap:butt;stroke-linejoin:round;stroke-miterlimit:4;stroke-opacity:1;stroke-dasharray:none"
               d="m 150,346.6479 c 22.0017,-8.48297 47.52312,-31.04485 77.14286,-70 l 4.28571,24.28571 c -11.53797,-36.95814 64.69492,-90.46192 105.71429,-170 26.37635,-19.60523 19.88237,-10.5995 42.85714,-20 l 7.14285,31.42857 L 370,153.79075 c -24.58971,24.73275 -1.68513,90.6567 -34.28571,108.57143 L 320,290.93361 c 26.19048,-33.54569 52.38095,-25.89465 78.57143,-18.57143 l 15.71428,10 32.85715,0 c 20.47619,-11.26757 38.09524,-9.18001 58.57143,-1.42857 L 518.57143,302.36218 480,318.07647 447.14286,315.21933 c -20.29643,5.09429 -51.13184,18.61975 -54.28572,10 -27.05458,18.18351 -54.85143,35.62475 -104.28571,31.42857 -18.64154,10.68653 -43.6782,40.55841 -65.71429,61.42857 C 152.45949,396.46275 140.82799,372.05065 150,346.6479 z"
               id="path5868-2"
               inkscape:connector-curvature="0"
               sodipodi:nodetypes="cccccccccccccccccccc" />
            <path
               style="fill:none;stroke:#000000;stroke-width:10.62992096;stroke-linecap:butt;stroke-linejoin:miter;stroke-miterlimit:4;stroke-opacity:1;stroke-dasharray:none"
               d="m 582.85714,192.36218 c 19.39197,2.5128 24.88488,20.35322 40,25.71429"
               id="path5892-8"
               inkscape:connector-curvature="0"
               sodipodi:nodetypes="cc" />
            <path
               style="fill:none;stroke:#000000;stroke-width:10.62992096;stroke-linecap:butt;stroke-linejoin:miter;stroke-miterlimit:4;stroke-opacity:1;stroke-dasharray:none"
               d="m 574.28571,206.6479 c 12.57641,1.51385 15.50997,6.59911 24.28572,15.71428"
               id="path5894-1"
               inkscape:connector-curvature="0"
               sodipodi:nodetypes="cc" />
            <path
               style="fill:none;stroke:#000000;stroke-width:11.33858299;stroke-linecap:round;stroke-linejoin:miter;stroke-miterlimit:4;stroke-opacity:1;stroke-dasharray:none"
               d="m 442.85714,343.79075 c 39.45892,-3.68708 71.78143,23.55031 121.42857,-24.28571"
               id="path5896-5"
               inkscape:connector-curvature="0"
               sodipodi:nodetypes="cc" />
            <path
               style="fill:none;stroke:#000000;stroke-width:10.62992096;stroke-linecap:butt;stroke-linejoin:miter;stroke-miterlimit:4;stroke-opacity:1;stroke-dasharray:none"
               d="m 574.28571,295.21933 1.42858,0 c -9.29173,10.9792 10.42605,6.14034 11.42857,7.14285 0.33671,0.33672 -0.33672,1.09186 0,1.42857 0.67343,0.67344 2.18371,-0.67343 2.85714,0 0.33672,0.33672 -0.33672,1.09186 0,1.42858 2.95577,2.95576 -0.11554,-4.51681 2.85714,1.42857 0.21296,0.42591 -0.21296,1.00265 0,1.42857 0.30117,0.60234 1.12741,0.82623 1.42857,1.42857 0.21296,0.42592 -0.33671,1.09185 0,1.42857 0.33672,0.33672 1.09186,-0.33672 1.42858,0 0.33671,0.33672 -0.33672,1.09185 0,1.42857 0.67343,0.67344 2.1837,-0.67343 2.85714,0 0.33672,0.33672 -0.21296,1.00266 0,1.42857 0.74517,1.49035 3.45509,2.2592 2.85714,2.85715 -0.47619,0.47619 -1.90476,-0.95238 -1.42857,-1.42857 1.66149,-1.66149 1.42857,2.08034 1.42857,2.85714 0,0.47619 0,0.95238 0,1.42857 0,0.47619 -0.33672,1.09185 0,1.42857 0.33672,0.33672 1.09186,-0.33672 1.42857,0 0.33672,0.33672 0,0.95238 0,1.42857 0,0.47619 0,0.95238 0,1.42857"
               id="path5917-0"
               inkscape:connector-curvature="0" />
            <path
               style="fill:none;stroke:#000000;stroke-width:10.62992096;stroke-linecap:butt;stroke-linejoin:miter;stroke-miterlimit:4;stroke-opacity:1;stroke-dasharray:none"
               d="m 458.57143,365.21933 c 3.44509,12.138 10.16059,26.45627 2.85714,31.42857"
               id="path5980-3"
               inkscape:connector-curvature="0"
               sodipodi:nodetypes="cc" />
            <path
               style="fill:none;stroke:#000000;stroke-width:10.2755909;stroke-linecap:butt;stroke-linejoin:miter;stroke-miterlimit:4;stroke-opacity:1;stroke-dasharray:none"
               d="m 488.57143,370.93361 0,25.71429"
               id="path5982-7"
               inkscape:connector-curvature="0" />
            <path
               style="fill:none;stroke:#000000;stroke-width:10.62992096;stroke-linecap:butt;stroke-linejoin:miter;stroke-miterlimit:4;stroke-opacity:1;stroke-dasharray:none"
               d="m 508.57143,368.07647 -2.85714,22.85714"
               id="path5984-1"
               inkscape:connector-curvature="0" />
            <path
               style="fill:none;stroke:#000000;stroke-width:11.33858299;stroke-linecap:butt;stroke-linejoin:miter;stroke-miterlimit:4;stroke-opacity:1;stroke-dasharray:none"
               d="M 388.57143,395.21933 C 382.38095,409.8654 376.19048,422.44098 370,429.50504"
               id="path5986-3"
               inkscape:connector-curvature="0"
               sodipodi:nodetypes="cc" />
            <path
               style="fill:none;stroke:#000000;stroke-width:10.98425198;stroke-linecap:butt;stroke-linejoin:miter;stroke-miterlimit:4;stroke-opacity:1;stroke-dasharray:none"
               d="m 402.85714,408.07647 c -11.7241,12.75863 -16.84083,27.71972 -17.14285,44.28571"
               id="path5988-9"
               inkscape:connector-curvature="0"
               sodipodi:nodetypes="cc" />
            <path
               style="fill:none;stroke:#000000;stroke-width:9.92125988;stroke-linecap:butt;stroke-linejoin:miter;stroke-miterlimit:4;stroke-opacity:1;stroke-dasharray:none"
               d="m 418.57143,416.6479 c -3.06358,9.69446 -12.40278,20.95783 -1.42857,27.14285"
               id="path5990-6"
               inkscape:connector-curvature="0"
               sodipodi:nodetypes="cc" />
            <path
               style="fill:none;stroke:#000000;stroke-width:9.92125988;stroke-linecap:butt;stroke-linejoin:miter;stroke-miterlimit:4;stroke-opacity:1;stroke-dasharray:none"
               d="m 608.57143,300.93361 c 10.03798,11.31464 23.34509,12.82187 37.14286,12.85714"
               id="path5992-1"
               inkscape:connector-curvature="0"
               sodipodi:nodetypes="cc" />
            <path
               style="fill:none;stroke:#000000;stroke-width:11.69291306;stroke-linecap:butt;stroke-linejoin:miter;stroke-miterlimit:4;stroke-opacity:1;stroke-dasharray:none"
               d="m 594.28571,385.21933 c 7.6624,8.25312 1.5569,15.3275 37.14286,27.14285"
               id="path5994-2"
               inkscape:connector-curvature="0"
               sodipodi:nodetypes="cc" />
            <path
               style="fill:none;stroke:#000000;stroke-width:10.62992096;stroke-linecap:butt;stroke-linejoin:miter;stroke-miterlimit:4;stroke-opacity:1;stroke-dasharray:none"
               d="m 617.14286,375.21933 c 6.60991,7.61905 9.51517,15.23809 34.28571,22.85714"
               id="path5996-9"
               inkscape:connector-curvature="0"
               sodipodi:nodetypes="cc" />
            <path
               style="fill:none;stroke:#000000;stroke-width:9.92125988;stroke-linecap:butt;stroke-linejoin:miter;stroke-miterlimit:4;stroke-opacity:1;stroke-dasharray:none"
               d="m 637.14286,359.50504 c 9.08683,6.66667 5.85045,13.33333 28.57143,20"
               id="path5998-5"
               inkscape:connector-curvature="0"
               sodipodi:nodetypes="cc" />
            <path
               style="fill:none;stroke:#000000;stroke-width:7.08661413;stroke-linecap:butt;stroke-linejoin:miter;stroke-miterlimit:4;stroke-opacity:1;stroke-dasharray:none"
               d="m 678.57143,288.07647 12.85714,-10 c 4.59774,4.39516 8.08329,9.53177 1.42857,21.42857"
               id="path6006-9"
               inkscape:connector-curvature="0"
               sodipodi:nodetypes="ccc" />
            <path
               style="fill:none;stroke:#000000;stroke-width:7.08661413;stroke-linecap:butt;stroke-linejoin:miter;stroke-miterlimit:4;stroke-opacity:1;stroke-dasharray:none"
               d="m 498.57143,295.21933 c -26.13176,-9.16721 -18.16135,6.30512 -22.85714,11.42856"
               id="path6002-4"
               inkscape:connector-curvature="0"
               sodipodi:nodetypes="cc" />
            <path
               style="fill:none;stroke:#000000;stroke-width:10.62992096;stroke-linecap:round;stroke-linejoin:miter;stroke-miterlimit:4;stroke-opacity:1;stroke-dasharray:none"
               d="m 390,136.6479 c 11.86442,23.24184 12.47986,28.5653 28.57143,37.14285"
               inkscape:connector-curvature="0"
               sodipodi:nodetypes="cc"
               id="path3017-9" />
            <path
               style="fill:none;stroke:#000000;stroke-width:10.62992096;stroke-linecap:round;stroke-linejoin:miter;stroke-miterlimit:4;stroke-opacity:1;stroke-dasharray:none"
               d="m 437.14286,166.6479 c 62.17948,31.28537 96.811,18.29206 131.42856,-11.42858"
               id="path3856-3"
               inkscape:connector-curvature="0"
               sodipodi:nodetypes="cc" />
            <path
               style="fill:none;stroke:#000000;stroke-width:7.08661413;stroke-linecap:butt;stroke-linejoin:miter;stroke-miterlimit:4;stroke-opacity:1;stroke-dasharray:none"
               d="m 444.28571,205.21933 c 30.95238,13.13692 61.90477,14.94453 92.85715,1.42857"
               id="path3858-0"
               inkscape:connector-curvature="0"
               sodipodi:nodetypes="cc" />
            <path
               style="fill:#cc4f25;fill-opacity:0.68333333;fill-rule:nonzero;stroke:#000000;stroke-width:10.12373447;stroke-linecap:round;stroke-linejoin:round;stroke-miterlimit:4;stroke-opacity:1;stroke-dasharray:none"
               d="m 370.67245,259.30626 c -4.71429,-0.72792 -11.24712,-0.99099 -14.51741,-0.58461 l -5.94598,0.73887 3.3945,-6.07341 c 4.86647,-8.70706 7.31014,-21.04202 9.91043,-50.02502 2.51777,-28.06317 5.43145,-38.82328 11.89179,-43.91583 l 3.8381,-3.02549 1.0204,14.0644 c 0.56122,7.73542 1.35144,20.8144 1.75605,29.0644 0.64606,13.17335 1.48767,23.99045 4.19582,53.92857 0.77681,8.58758 1.2292,8.41796 -15.5437,5.82812 z"
               id="path3860-3"
               inkscape:connector-curvature="0" />
            <path
               style="fill:none;stroke:#000000;stroke-width:9.92125988;stroke-linecap:butt;stroke-linejoin:miter;stroke-miterlimit:4;stroke-opacity:1;stroke-dasharray:none"
               d="m 457.14286,75.219325 c 14.51051,-6.228547 31.25595,-11.06027 75.71428,1.428572 l 0,0"
               id="path3862-6"
               inkscape:connector-curvature="0"
               sodipodi:nodetypes="ccc" />
            <path
               style="fill:none;stroke:#000000;stroke-width:10.62992096;stroke-linecap:butt;stroke-linejoin:miter;stroke-miterlimit:4;stroke-opacity:1;stroke-dasharray:none"
               d="m 561.42857,290.93361 -7.14286,20"
               id="path3864-2"
               inkscape:connector-curvature="0" />
          </g>
          <g
             inkscape:label="Matrice"
             id="layer1-5"
             style="opacity:0.5078125;display:none">
            <image
               y="7.7907629"
               x="9.7857227"
               id="image5354-6"
               xlink:href="file:///home/thomas/Images/Mes%20dessins/Infographie/Jeu%20bi%C3%A8re/boit2.png"
               height="551.30707"
               width="726.14288" />
          </g>
        </g>
      </g>
    </g>
  </g>
  <g
     inkscape:label="Matrice"
     inkscape:groupmode="layer"
     id="layer1"
     style="opacity:0.5078125;display:none"
     sodipodi:insensitive="true">
    <image
       y="7.7907629"
       x="9.7857227"
       id="image5354"
       xlink:href="file:///home/thomas/Images/Mes%20dessins/Infographie/Jeu%20bi%C3%A8re/boit2.png"
       height="551.30707"
       width="726.14288" />
  </g>
</svg>
