<?xml version="1.0" encoding="UTF-8" standalone="no"?>
<!-- Created with Inkscape (http://www.inkscape.org/) -->

<svg
   xmlns:dc="http://purl.org/dc/elements/1.1/"
   xmlns:cc="http://creativecommons.org/ns#"
   xmlns:rdf="http://www.w3.org/1999/02/22-rdf-syntax-ns#"
   xmlns:svg="http://www.w3.org/2000/svg"
   xmlns="http://www.w3.org/2000/svg"
   xmlns:xlink="http://www.w3.org/1999/xlink"
   xmlns:sodipodi="http://sodipodi.sourceforge.net/DTD/sodipodi-0.dtd"
   xmlns:inkscape="http://www.inkscape.org/namespaces/inkscape"
   width="744.09448819"
   height="1052.3622047"
   id="svg3815"
   version="1.1"
   inkscape:version="0.48.4 r9939"
   sodipodi:docname="boit1-2.svg">
  <defs
     id="defs3817" />
  <sodipodi:namedview
     id="base"
     pagecolor="#ffffff"
     bordercolor="#666666"
     borderopacity="1.0"
     inkscape:pageopacity="0.0"
     inkscape:pageshadow="2"
     inkscape:zoom="0.7"
     inkscape:cx="-33.65843"
     inkscape:cy="668.38214"
     inkscape:document-units="px"
     inkscape:current-layer="layer1"
     showgrid="false"
     inkscape:window-width="1366"
     inkscape:window-height="716"
     inkscape:window-x="0"
     inkscape:window-y="0"
     inkscape:window-maximized="1" />
  <metadata
     id="metadata3820">
    <rdf:RDF>
      <cc:Work
         rdf:about="">
        <dc:format>image/svg+xml</dc:format>
        <dc:type
           rdf:resource="http://purl.org/dc/dcmitype/StillImage" />
        <dc:title />
      </cc:Work>
    </rdf:RDF>
  </metadata>
  <g
     inkscape:label="Layer 1"
     inkscape:groupmode="layer"
     id="layer1"
     style="display:inline;opacity:0.98571429">
    <path
       style="fill:#ffccaa;stroke:#000000;stroke-width:9.92125987999999914;stroke-linecap:butt;stroke-linejoin:miter;stroke-miterlimit:4;stroke-opacity:1;stroke-dasharray:none"
       d="m 624.28571,310.93361 -2.85714,-8.57143 c 20.79597,-9.98108 19.12527,-32.44363 5.71429,-61.42857 l 15.71428,14.28572 c 3.34568,-32.58688 29.19651,-27.24804 57.14286,-14.28571 4.46173,13.89752 2.19489,25.02132 -7.14285,29.99999 -29.67781,15.82354 -35.09328,20.04856 -40.00001,35.71428 z"
       id="path3824"
       inkscape:connector-curvature="0"
       sodipodi:nodetypes="cccccscc" />
    <path
       style="fill:#ff6600;fill-opacity:1;stroke:#000000;stroke-width:12.40157509;stroke-linecap:butt;stroke-linejoin:miter;stroke-miterlimit:4;stroke-opacity:1;stroke-dasharray:none"
       d="m 609.99999,305.21932 -25.71428,-25.71428 -150,-38.57143 -150.48876,119.2999 36.20305,20.7001 -62.85714,40 c 47.76155,4.19132 57.14286,1.42857 57.14286,1.42857 0,0 -23.74167,28.29884 -24.28574,41.42857 31.01907,10.10944 30.56344,-14.02406 48.57146,-18.57142 l 8.57142,65.71428 c 29.27488,-1.92643 18.01212,-30.82549 42.85716,-48.57142 16.77566,16.95926 18.3132,39.15659 19.99998,48.57141 l 41.42857,-31.42856 44.28571,50 15.71429,-61.42857 c 36.07335,21.0119 30.73978,38.69164 57.14286,48.57142 -7.48777,-19.25011 -12.05807,-39.4727 1.42857,-65.71428 l 54.28571,27.14286 c -7.54955,-15.5794 -6.73564,-28.13529 4.28572,-58.57143 l 48.57142,1.42857 L 658.57143,376.6479 690,376.64789 c -13.64238,-20.95743 4.09233,-21.88396 -28.57142,-31.42856 l 44.28571,-11.42857 -45.98175,-12.65549 28.83889,-20.20166 -51.42857,2.85715 54.28571,-22.85714 L 620,300.93361"
       id="path3854"
       inkscape:connector-curvature="0"
       sodipodi:nodetypes="ccccccccccccccccccccccccccccc" />
    <path
       style="fill:#159aab;fill-opacity:0.97777776;stroke:#000000;stroke-width:13.11023617;stroke-linecap:butt;stroke-linejoin:round;stroke-miterlimit:4;stroke-opacity:1;stroke-dasharray:none"
       d="m 198.57143,298.07647 c -32.97226,-29.04134 -55.63569,-9.87425 -71.42857,-11.42857 -12.17854,27.09225 -15.32302,51.92599 2.85714,71.42857 -1.16169,-15.30434 -20.19424,-31.27774 -8.57143,-54.28572 l -40,14.28572 -7.142858,34.28571 -34.285713,-5.71429 C 20.74551,440.00334 102.36709,495.49363 185.71429,516.6479 c -2.64447,2.64446 -12.14719,-18.69001 1.42856,-31.42857 7.11063,-6.67213 30.00001,0 30.00001,0 L 234.28571,458.07646 202.85714,436.6479 250,460.93362 c 5.48848,-10.1404 -17.94367,-28.06493 21.42857,-31.42858 17.39394,13.44462 5.13793,-49.81052 -15.71428,-44.28572 L 230,408.07647 c -31.04363,-13.64731 -68.7845,-15.38841 -67.14286,-87.14286 z"
       id="path3030"
       inkscape:connector-curvature="0"
       sodipodi:nodetypes="ccccccccsccccccccc" />
    <path
       style="fill:#fff4d5;fill-opacity:1;stroke:#000000;stroke-width:10.62992096;stroke-linecap:butt;stroke-linejoin:miter;stroke-miterlimit:4;stroke-opacity:1;stroke-dasharray:none"
       d="M 420.00001,90.933612 C 501.27582,51.629202 620.69448,71.861029 652.85714,203.79075 661.38501,282.47251 634.74052,283.50244 610,325.21932 L 418.57142,266.6479 355.00567,152.37965 c 11.60772,-18.65346 13.62962,-35.56404 64.99434,-61.446038 z"
       id="path3822"
       inkscape:connector-curvature="0"
       sodipodi:nodetypes="cccccc" />
    <path
       style="fill:#cc4f25;fill-opacity:0.68235294;stroke:#000000;stroke-width:0;stroke-linecap:butt;stroke-linejoin:miter;stroke-miterlimit:4;stroke-opacity:1;stroke-dasharray:none"
       d="M 415.71428,343.79075 528.57142,158.07647 370,186.64789 387.14285,325.21932 z"
       id="path4430"
       inkscape:connector-curvature="0" />
    <path
       style="fill:#dca066;stroke:#000000;stroke-width:8.85826772000000062;stroke-linecap:round;stroke-linejoin:round;stroke-miterlimit:4;stroke-opacity:1;stroke-dasharray:none;fill-opacity:0.94117647000000004"
       d="m 454.28571,119.50504 82.85714,0 50,40 31.42857,47.14285 c -25.4435,16.26203 -40.02801,3.56675 -54.28571,-10"
       id="path3027"
       inkscape:connector-curvature="0"
       sodipodi:nodetypes="ccccc" />
    <path
       style="fill:none;stroke:#000000;stroke-width:7.79527569000000042;stroke-linecap:round;stroke-linejoin:round;stroke-miterlimit:4;stroke-opacity:1;stroke-dasharray:none"
       d="m 641.42857,312.36218 c 7.91122,-23.62551 6.38062,-37.80918 7.14286,-54.28571 l 0,21.42857 C 658.09524,262.31338 670.47619,251.5969 680,256.6479"
       id="path3850"
       inkscape:connector-curvature="0"
       sodipodi:nodetypes="cccc" />
    <path
       style="fill:none;stroke:#000000;stroke-width:12.40157508999999969;stroke-linecap:butt;stroke-linejoin:miter;stroke-miterlimit:4;stroke-opacity:1;stroke-dasharray:none"
       d="M 571.42857,366.6479 C 571.23674,351.45946 543.516,348.99295 535.71428,345.21932"
       id="path3834"
       inkscape:connector-curvature="0"
       sodipodi:nodetypes="cc" />
    <path
       style="fill:#ff6600;stroke:#000000;stroke-width:8.85826778000000026;stroke-linecap:butt;stroke-linejoin:miter;stroke-miterlimit:4;stroke-opacity:1;stroke-dasharray:none"
       d="m 510,270.93361 c -1.34799,22.34066 3.07697,50.36628 24.28571,61.42858 25.84046,4.28571 33.43566,-10e-6 62.85715,4.2857 l 55.71428,24.28573 -20,-30.00001 c 22.31016,15.77683 38.06527,20.1984 52.85715,-12.85714 -20.2076,3.40664 -34.49643,-2.06489 -47.14286,-10 l 35.71428,-15.71428 C 635.7696,293.76396 571.02034,294.62662 557.14285,253.79076 531.69399,245.50297 524.46134,260.90887 510,270.93361 z"
       id="path3866"
       inkscape:connector-curvature="0"
       sodipodi:nodetypes="cccccccccc" />
    <path
       sodipodi:type="arc"
       style="fill:#ffff95;fill-opacity:1;fill-rule:nonzero;stroke:#000000;stroke-width:13.11023617;stroke-linecap:round;stroke-linejoin:round;stroke-miterlimit:4;stroke-opacity:1;stroke-dasharray:none"
       id="path3802"
       sodipodi:cx="531.42859"
       sodipodi:cy="230.21933"
       sodipodi:rx="102.85715"
       sodipodi:ry="89.285721"
       d="m 634.28574,230.21933 a 102.85715,89.285721 0 1 1 -205.7143,0 102.85715,89.285721 0 1 1 205.7143,0 z"
       transform="translate(-32.857142,38.571428)" />
    <path
       style="fill:#d45500;stroke:#000000;stroke-width:9.92125987999999914;stroke-linecap:butt;stroke-linejoin:miter;stroke-miterlimit:4;stroke-opacity:1;stroke-dasharray:none"
       d="m 648.57143,230.93361 c 10.32266,-9.41626 -5.68741,-27.61009 -17.14286,-44.28571 30.08628,7.57591 45.62775,26.70994 52.85715,45.71429 -13.48688,-6.00581 -26.01497,-7.2177 -35.71429,5.71428 z"
       id="path3826"
       inkscape:connector-curvature="0"
       sodipodi:nodetypes="ccccc" />
    <path
       style="fill:none;stroke:#000000;stroke-width:10.20123863;stroke-linecap:round;stroke-linejoin:miter;stroke-miterlimit:4;stroke-opacity:1;stroke-dasharray:none"
       d="m 589.24292,220.17653 22.94273,10.08559"
       id="path3828"
       inkscape:connector-curvature="0"
       sodipodi:nodetypes="cc" />
    <path
       style="fill:#ffd693;fill-opacity:1;stroke:#000000;stroke-width:13.11023617;stroke-linecap:butt;stroke-linejoin:miter;stroke-miterlimit:4;stroke-opacity:1;stroke-dasharray:none"
       d="m 165.71428,316.6479 c 15.40473,-10.35237 34.29918,-22.10062 68.57143,-40 24.02485,-40.47619 56.19625,-80.95238 114.28572,-121.42857 l 112.85714,-34.28572 c 0,0 56.31744,6.0468 80,20.00001 16.83632,9.91956 40,42.85714 40,42.85714 l 22.85714,18.57143 c -11.43778,4.9358 -16.50112,21.34559 -45.71428,-5.71429 -17.85819,-7.85609 -22.94215,-15.62929 -37.14286,-27.14285 -29.71391,12.84827 -57.8749,3.98611 -80,-1.42858 0.98743,26.39594 -22.93617,26.24384 -44.28572,22.85715 3.33389,14.22855 -12.11653,30.26571 -14.28571,15.71428 27.55742,78.77664 -37.26413,89.48458 -77.14286,118.57143 l 65.71429,-34.28571 c 32.60749,20 58.7218,40 68.57143,60 12.03868,18.90741 46.76237,6.47254 48.57143,21.42857 58.80377,-10.87908 58.41279,19.26685 62.85714,42.85714 -13.1547,0.0833 -24.19718,-13.95788 -55.71429,-2.85714 -21.42839,-10.00018 -44.42806,-18.42908 -77.14285,-17.14286 -31.36812,-15.264 -86.68677,-20.26349 -144.28572,-24.28571 l -47.14285,28.57142 c -45.93763,-4.11618 -65.00652,-33.03428 -61.42858,-82.85714 z"
       id="path3025"
       inkscape:connector-curvature="0"
       sodipodi:nodetypes="ccccsccccccccccccccccc" />
    <path
       sodipodi:type="arc"
       style="fill:#159aab;fill-opacity:0.38888891;fill-rule:nonzero;stroke:#000000;stroke-width:4.04362917;stroke-linecap:round;stroke-linejoin:round;stroke-miterlimit:4;stroke-opacity:1;stroke-dasharray:none"
       id="path3816"
       sodipodi:cx="482.85715"
       sodipodi:cy="178.07646"
       sodipodi:rx="32.85714"
       sodipodi:ry="17.142857"
       d="m 458.23652,166.72439 a 32.85714,17.142857 0 0 1 39.16303,-4.0203"
       transform="matrix(2.3861959,0,0,4.1263356,-653.52147,-464.35757)"
       sodipodi:start="3.8653491"
       sodipodi:end="5.1708795"
       sodipodi:open="true" />
    <path
       sodipodi:type="arc"
       style="fill:#159aab;fill-opacity:0.38888891;fill-rule:nonzero;stroke:#000000;stroke-width:13.11023617;stroke-linecap:round;stroke-linejoin:round;stroke-miterlimit:4;stroke-opacity:1;stroke-dasharray:none"
       id="path3814"
       sodipodi:cx="490.71429"
       sodipodi:cy="183.79076"
       sodipodi:rx="67.857147"
       sodipodi:ry="42.857143"
       d="M 551.12121,203.31458 A 67.857147,42.857143 0 0 1 453.198,219.50217"
       sodipodi:start="0.47299664"
       sodipodi:end="2.1566029"
       transform="matrix(0.91606542,0,0,0.80922807,45.699192,155.57946)"
       sodipodi:open="true" />
    <path
       style="fill:none;stroke:#000000;stroke-width:9.92125983999999939;stroke-linecap:butt;stroke-linejoin:miter;stroke-miterlimit:4;stroke-opacity:1;stroke-dasharray:none"
       d="m 414.28572,430.93361 c -12.85714,18.57143 -8.57143,28.57143 -8.57143,28.57143"
       id="path5008"
       inkscape:connector-curvature="0"
       sodipodi:nodetypes="cc" />
    <path
       style="fill:none;stroke:#000000;stroke-width:10.62992125999999971;stroke-linecap:butt;stroke-linejoin:miter;stroke-miterlimit:4;stroke-opacity:1;stroke-dasharray:none"
       d="m 425.71429,448.07647 -4.28572,20 1.42858,12.85714"
       id="path5010"
       inkscape:connector-curvature="0"
       sodipodi:nodetypes="ccc" />
    <path
       style="fill:none;stroke:#000000;stroke-width:10.62992125999999971;stroke-linecap:butt;stroke-linejoin:miter;stroke-miterlimit:4;stroke-opacity:1;stroke-dasharray:none"
       d="M 402.85714,420.93362 C 391.42857,446.6479 390,446.6479 390,446.6479"
       id="path5012"
       inkscape:connector-curvature="0" />
    <path
       style="fill:none;stroke:#000000;stroke-width:10.62992096;stroke-linecap:butt;stroke-linejoin:miter;stroke-miterlimit:4;stroke-opacity:1;stroke-dasharray:none"
       d="m 587.14285,385.21932 c 21.42857,18.57143 27.14286,27.14286 27.14286,27.14286"
       id="path5014"
       inkscape:connector-curvature="0"
       sodipodi:nodetypes="cc" />
    <path
       style="fill:none;stroke:#000000;stroke-width:10.62992126;stroke-linecap:butt;stroke-linejoin:miter;stroke-opacity:1;stroke-miterlimit:4;stroke-dasharray:none"
       d="m 608.57143,376.6479 c 19.20975,26.1094 25.43679,22.99588 25.71428,22.85714"
       id="path5016"
       inkscape:connector-curvature="0"
       sodipodi:nodetypes="cc" />
    <path
       style="fill:none;stroke:#000000;stroke-width:9.92125984;stroke-linecap:butt;stroke-linejoin:miter;stroke-opacity:1;stroke-miterlimit:4;stroke-dasharray:none"
       d="m 628.57143,378.07647 c 5.75533,15.71428 15.4195,15.71428 15.71428,15.71428"
       id="path5018"
       inkscape:connector-curvature="0"
       sodipodi:nodetypes="cc" />
    <path
       style="fill:none;stroke:#000000;stroke-width:12.4015748;stroke-linecap:butt;stroke-linejoin:miter;stroke-opacity:1;stroke-miterlimit:4;stroke-dasharray:none"
       d="M 91.428571,386.6479 C 73.994626,380.1929 71.390022,367.80617 72.857143,353.79075"
       id="path5020"
       inkscape:connector-curvature="0"
       sodipodi:nodetypes="cc" />
    <path
       style="fill:none;stroke:#000000;stroke-width:7.08661413;stroke-linecap:butt;stroke-linejoin:miter;stroke-miterlimit:4;stroke-opacity:1;stroke-dasharray:none"
       d="m 495.71428,415.21933 c 6.11125,-9.9901 -5.10366,-13.70729 28.57143,-27.14287 6.73604,8.78966 17.30539,14.25549 5.71429,15.71429"
       id="path3029"
       inkscape:connector-curvature="0"
       sodipodi:nodetypes="ccc" />
  </g>
  <g
     inkscape:groupmode="layer"
     id="layer4"
     inkscape:label="sobre"
     sodipodi:insensitive="true"
     style="opacity:0;display:none">
    <image
       y="9.505022"
       x="182.85712"
       id="image4492"
       xlink:href="file:///home/thomas/Images/Mes%20dessins/Infographie/Jeu%20bi%C3%A8re/sobre.png"
       height="564.28564"
       width="564.28564" />
  </g>
  <g
     inkscape:groupmode="layer"
     id="layer2"
     inkscape:label="Matrice"
     style="opacity:0.2953125;display:none"
     sodipodi:insensitive="true">
    <image
       y="5.0050402"
       x="7.6428614"
       id="image3867"
       xlink:href="file:///home/thomas/Images/Mes%20dessins/Infographie/Jeu%20bi%C3%A8re/boit1.png"
       height="556.42645"
       width="733.28571" />
    <path
       style="fill:none;stroke:#000000;stroke-width:1px;stroke-linecap:butt;stroke-linejoin:miter;stroke-opacity:1"
       d="M 197.14286,255.21933 120,236.6479 l -5.71429,71.42857 -7.14285,-41.42857 -25.714289,17.14285 7.142858,37.14286 -35.714286,-15.71428 91.428567,167.14285 7.14286,-32.85714 38.57143,22.85714 1.42857,-31.42857 -18.57143,-4.28571 42.85715,7.14285 27.14285,-44.28571 -8.57143,-34.28571 -15.71428,10"
       id="path3028"
       inkscape:connector-curvature="0" />
  </g>
  <g
     inkscape:groupmode="layer"
     id="layer5"
     inkscape:label="Boit2"
     style="opacity:0.2142857;display:none"
     sodipodi:insensitive="true">
    <g
       id="g4733"
       transform="translate(-5.4000256,4.6042767)">
      <g
         style="display:inline"
         inkscape:label="layer1"
         id="layer3">
        <path
           sodipodi:nodetypes="ccccc"
           inkscape:connector-curvature="0"
           id="path5876"
           d="m 677.14286,266.6479 c 19.31133,-13.17209 22.14138,1.67109 34.28571,10 7.37034,13.09736 -15.97659,33.76674 -45.71428,54.28571 l -2.85715,-55.71428 14.28572,-1.42858"
           style="fill:#fff4d5;fill-opacity:1;stroke:#000000;stroke-width:9.92125988;stroke-linecap:butt;stroke-linejoin:miter;stroke-miterlimit:4;stroke-opacity:1;stroke-dasharray:none" />
        <path
           sodipodi:nodetypes="cccc"
           inkscape:connector-curvature="0"
           id="path5872"
           d="m 601.42857,146.64789 c 94.10337,34.84306 59.96113,154.06041 70,128.57144 L 550,299.50504 c 18.31783,-47.1439 16.223,-61.39016 51.42857,-152.85715 z"
           style="fill:#fff4d5;fill-opacity:1;stroke:#000000;stroke-width:10.62992096;stroke-linecap:butt;stroke-linejoin:miter;stroke-miterlimit:4;stroke-opacity:1;stroke-dasharray:none" />
        <path
           sodipodi:nodetypes="cccccccscccccccccccccccccccccc"
           inkscape:connector-curvature="0"
           id="path5874"
           d="m 287.14286,353.79076 c 70.69965,-1.10718 4.17602,7.27089 -8.57143,54.28571 45.29048,-25.17636 60.90394,-24.01422 17.14286,25.71428 30.67134,-10.09757 28.04661,2.16717 37.14285,2.85715 4.23454,24.76191 -20.6053,30.95238 -10,47.14286 24.49874,-5.37095 36.49577,-17.23289 50,-30.00001 l 1.42858,32.85714 c 13.2165,5.2866 56.80917,-17.18967 48.57142,-31.42856 -8.98829,-15.5362 21.17953,30.06564 20,37.14285 L 478.57143,466.6479 512.85714,499.50504 520,468.07647 c 24.32834,2.23877 48.00744,3.01674 87.14286,38.57143 -11.18474,-19.04762 -22.26952,-38.09524 -18.57143,-57.14286 25.10437,11.02196 46.29788,19.43668 60,22.85714 -20.05314,-19.52381 -9.60953,-39.04762 0,-58.57143 l 55.71428,-2.85714 -21.42857,-28.57143 34.28572,0 c -4.84494,-10.95238 -26.38377,-21.90476 -50,-32.85714 L 680,338.07647 l -22.85714,-5.71429 27.14285,-20 -40,-22.85714 c 12.86016,8.58348 22.31729,3.55484 31.42858,-2.85714 l -10,-7.14286 8.57142,-15.71429 c -43.98346,30.13199 -44.57024,-12.38902 -102.85714,-20 l -224.28571,81.42858 c -51.99935,11.40944 -60,-26.75428 -60,28.57143 z"
           style="fill:#ff6600;stroke:#000000;stroke-width:12.40157509;stroke-linecap:butt;stroke-linejoin:miter;stroke-miterlimit:4;stroke-opacity:1;stroke-dasharray:none" />
        <path
           sodipodi:nodetypes="cccccccccccccccc"
           inkscape:connector-curvature="0"
           id="path5358"
           d="m 62.857143,366.6479 c -34.432897,96.53745 55.864057,177.21415 118.571427,164.28571 -0.0899,-25.41796 11.05668,-28.36282 30,-15.71428 l 7.14286,-21.42858 -30,-11.42857 50,4.28572 c -5.6184,-28.18974 6.15334,-36.50503 27.14286,-34.28572 10.05407,-9.73487 -8.69117,-33.86939 -20,-54.28571 l -24.28572,22.85714 C 181.26521,403.26358 143.8628,384.44316 148.57143,348.07647 l 25.71428,-21.42857 c -2.13735,-5.53449 -99.310038,-38.56814 -55.71428,58.57143 l -11.42857,-38.57143 -20.000003,15.71428 5.714286,18.57143 z"
           style="fill:#159aab;fill-opacity:1;stroke:#000000;stroke-width:13.11023617;stroke-linecap:butt;stroke-linejoin:miter;stroke-miterlimit:4;stroke-opacity:1;stroke-dasharray:none" />
        <path
           sodipodi:nodetypes="cc"
           inkscape:connector-curvature="0"
           id="path5880"
           d="m 438.57143,169.50504 c 39.57357,23.14847 81.40809,27.07884 128.57143,-14.28571"
           style="fill:none;stroke:#000000;stroke-width:14.17322826;stroke-linecap:round;stroke-linejoin:miter;stroke-miterlimit:4;stroke-opacity:1;stroke-dasharray:none" />
        <path
           sodipodi:nodetypes="cc"
           inkscape:connector-curvature="0"
           id="path5882"
           d="m 442.85714,202.36218 c 32.85714,15.74098 65.71429,16.63201 98.57143,5.71429"
           style="fill:none;stroke:#000000;stroke-width:10.62992096;stroke-linecap:round;stroke-linejoin:miter;stroke-miterlimit:4;stroke-opacity:1;stroke-dasharray:none" />
        <path
           sodipodi:nodetypes="cc"
           inkscape:connector-curvature="0"
           id="path5884"
           d="m 455.71429,76.647896 c 20.30201,-11.776927 48.30243,-8.157044 80,2.857143"
           style="fill:none;stroke:#000000;stroke-width:10.62992096;stroke-linecap:round;stroke-linejoin:miter;stroke-miterlimit:4;stroke-opacity:1;stroke-dasharray:none" />
        <path
           sodipodi:nodetypes="cc"
           inkscape:connector-curvature="0"
           id="path5886"
           d="m 381.42857,126.6479 c 10.95238,18.76964 23.33333,36.4694 34.28571,44.28571"
           style="fill:none;stroke:#000000;stroke-width:10.62992096;stroke-linecap:round;stroke-linejoin:miter;stroke-miterlimit:4;stroke-opacity:1;stroke-dasharray:none" />
        <path
           sodipodi:nodetypes="csc"
           inkscape:connector-curvature="0"
           id="path5890"
           d="m 148.57143,426.6479 c 6.53016,-2.95346 12.31838,0.32725 23.87965,6.72312 15.77429,8.72658 41.46028,20.59295 57.54892,20.41973"
           style="fill:none;stroke:#000000;stroke-width:10.62992096;stroke-linecap:butt;stroke-linejoin:miter;stroke-miterlimit:4;stroke-opacity:1;stroke-dasharray:none" />
        <path
           sodipodi:nodetypes="cccccccc"
           inkscape:connector-curvature="0"
           id="path5870"
           d="M 394.28572,268.07647 382.85714,106.6479 c 25.22418,-101.7502444 221.63946,-75.227694 222.85715,8.57142 -1.30683,36.4617 -15.3285,52.02986 -31.42858,70.00001 L 590,168.07647 l -41.42857,130 c -54.76425,21.91179 -103.46102,11.33544 -147.14286,0 z"
           style="fill:#ffff95;fill-opacity:1;stroke:#000000;stroke-width:13.11023617;stroke-linecap:butt;stroke-linejoin:miter;stroke-miterlimit:4;stroke-opacity:1;stroke-dasharray:none" />
        <path
           sodipodi:nodetypes="cccccccccccccccccccc"
           inkscape:connector-curvature="0"
           id="path5868"
           d="m 150,346.6479 c 22.0017,-8.48297 47.52312,-31.04485 77.14286,-70 l 4.28571,24.28571 c -11.53797,-36.95814 64.69492,-90.46192 105.71429,-170 26.37635,-19.60523 19.88237,-10.5995 42.85714,-20 l 7.14285,31.42857 L 370,153.79075 c -24.58971,24.73275 -1.68513,90.6567 -34.28571,108.57143 L 320,290.93361 c 26.19048,-33.54569 52.38095,-25.89465 78.57143,-18.57143 l 15.71428,10 32.85715,0 c 20.47619,-11.26757 38.09524,-9.18001 58.57143,-1.42857 L 518.57143,302.36218 480,318.07647 447.14286,315.21933 c -20.29643,5.09429 -51.13184,18.61975 -54.28572,10 -27.05458,18.18351 -54.85143,35.62475 -104.28571,31.42857 -18.64154,10.68653 -43.6782,40.55841 -65.71429,61.42857 C 152.45949,396.46275 140.82799,372.05065 150,346.6479 z"
           style="fill:#ffd693;fill-opacity:1;stroke:#000000;stroke-width:13.11023617;stroke-linecap:butt;stroke-linejoin:round;stroke-miterlimit:4;stroke-opacity:1;stroke-dasharray:none" />
        <path
           sodipodi:nodetypes="cc"
           inkscape:connector-curvature="0"
           id="path5892"
           d="m 582.85714,192.36218 c 19.39197,2.5128 24.88488,20.35322 40,25.71429"
           style="fill:none;stroke:#000000;stroke-width:10.62992096;stroke-linecap:butt;stroke-linejoin:miter;stroke-miterlimit:4;stroke-opacity:1;stroke-dasharray:none" />
        <path
           sodipodi:nodetypes="cc"
           inkscape:connector-curvature="0"
           id="path5894"
           d="m 574.28571,206.6479 c 12.57641,1.51385 15.50997,6.59911 24.28572,15.71428"
           style="fill:none;stroke:#000000;stroke-width:10.62992096;stroke-linecap:butt;stroke-linejoin:miter;stroke-miterlimit:4;stroke-opacity:1;stroke-dasharray:none" />
        <path
           sodipodi:nodetypes="cc"
           inkscape:connector-curvature="0"
           id="path5896"
           d="m 442.85714,343.79075 c 39.45892,-3.68708 71.78143,23.55031 121.42857,-24.28571"
           style="fill:none;stroke:#000000;stroke-width:11.33858299;stroke-linecap:round;stroke-linejoin:miter;stroke-miterlimit:4;stroke-opacity:1;stroke-dasharray:none" />
        <path
           inkscape:connector-curvature="0"
           id="path5917"
           d="m 574.28571,295.21933 1.42858,0 c -9.29173,10.9792 10.42605,6.14034 11.42857,7.14285 0.33671,0.33672 -0.33672,1.09186 0,1.42857 0.67343,0.67344 2.18371,-0.67343 2.85714,0 0.33672,0.33672 -0.33672,1.09186 0,1.42858 2.95577,2.95576 -0.11554,-4.51681 2.85714,1.42857 0.21296,0.42591 -0.21296,1.00265 0,1.42857 0.30117,0.60234 1.12741,0.82623 1.42857,1.42857 0.21296,0.42592 -0.33671,1.09185 0,1.42857 0.33672,0.33672 1.09186,-0.33672 1.42858,0 0.33671,0.33672 -0.33672,1.09185 0,1.42857 0.67343,0.67344 2.1837,-0.67343 2.85714,0 0.33672,0.33672 -0.21296,1.00266 0,1.42857 0.74517,1.49035 3.45509,2.2592 2.85714,2.85715 -0.47619,0.47619 -1.90476,-0.95238 -1.42857,-1.42857 1.66149,-1.66149 1.42857,2.08034 1.42857,2.85714 0,0.47619 0,0.95238 0,1.42857 0,0.47619 -0.33672,1.09185 0,1.42857 0.33672,0.33672 1.09186,-0.33672 1.42857,0 0.33672,0.33672 0,0.95238 0,1.42857 0,0.47619 0,0.95238 0,1.42857"
           style="fill:none;stroke:#000000;stroke-width:10.62992096;stroke-linecap:butt;stroke-linejoin:miter;stroke-miterlimit:4;stroke-opacity:1;stroke-dasharray:none" />
        <path
           sodipodi:nodetypes="cc"
           inkscape:connector-curvature="0"
           id="path5980"
           d="m 458.57143,365.21933 c 3.44509,12.138 10.16059,26.45627 2.85714,31.42857"
           style="fill:none;stroke:#000000;stroke-width:10.62992096;stroke-linecap:butt;stroke-linejoin:miter;stroke-miterlimit:4;stroke-opacity:1;stroke-dasharray:none" />
        <path
           inkscape:connector-curvature="0"
           id="path5982"
           d="m 488.57143,370.93361 0,25.71429"
           style="fill:none;stroke:#000000;stroke-width:10.2755909;stroke-linecap:butt;stroke-linejoin:miter;stroke-miterlimit:4;stroke-opacity:1;stroke-dasharray:none" />
        <path
           inkscape:connector-curvature="0"
           id="path5984"
           d="m 508.57143,368.07647 -2.85714,22.85714"
           style="fill:none;stroke:#000000;stroke-width:10.62992096;stroke-linecap:butt;stroke-linejoin:miter;stroke-miterlimit:4;stroke-opacity:1;stroke-dasharray:none" />
        <path
           sodipodi:nodetypes="cc"
           inkscape:connector-curvature="0"
           id="path5986"
           d="M 388.57143,395.21933 C 382.38095,409.8654 376.19048,422.44098 370,429.50504"
           style="fill:none;stroke:#000000;stroke-width:11.33858299;stroke-linecap:butt;stroke-linejoin:miter;stroke-miterlimit:4;stroke-opacity:1;stroke-dasharray:none" />
        <path
           sodipodi:nodetypes="cc"
           inkscape:connector-curvature="0"
           id="path5988"
           d="m 402.85714,408.07647 c -11.7241,12.75863 -16.84083,27.71972 -17.14285,44.28571"
           style="fill:none;stroke:#000000;stroke-width:10.98425198;stroke-linecap:butt;stroke-linejoin:miter;stroke-miterlimit:4;stroke-opacity:1;stroke-dasharray:none" />
        <path
           sodipodi:nodetypes="cc"
           inkscape:connector-curvature="0"
           id="path5990"
           d="m 418.57143,416.6479 c -3.06358,9.69446 -12.40278,20.95783 -1.42857,27.14285"
           style="fill:none;stroke:#000000;stroke-width:9.92125988;stroke-linecap:butt;stroke-linejoin:miter;stroke-miterlimit:4;stroke-opacity:1;stroke-dasharray:none" />
        <path
           sodipodi:nodetypes="cc"
           inkscape:connector-curvature="0"
           id="path5992"
           d="m 608.57143,300.93361 c 10.03798,11.31464 23.34509,12.82187 37.14286,12.85714"
           style="fill:none;stroke:#000000;stroke-width:9.92125988;stroke-linecap:butt;stroke-linejoin:miter;stroke-miterlimit:4;stroke-opacity:1;stroke-dasharray:none" />
        <path
           sodipodi:nodetypes="cc"
           inkscape:connector-curvature="0"
           id="path5994"
           d="m 594.28571,385.21933 c 7.6624,8.25312 1.5569,15.3275 37.14286,27.14285"
           style="fill:none;stroke:#000000;stroke-width:11.69291306;stroke-linecap:butt;stroke-linejoin:miter;stroke-miterlimit:4;stroke-opacity:1;stroke-dasharray:none" />
        <path
           sodipodi:nodetypes="cc"
           inkscape:connector-curvature="0"
           id="path5996"
           d="m 617.14286,375.21933 c 6.60991,7.61905 9.51517,15.23809 34.28571,22.85714"
           style="fill:none;stroke:#000000;stroke-width:10.62992096;stroke-linecap:butt;stroke-linejoin:miter;stroke-miterlimit:4;stroke-opacity:1;stroke-dasharray:none" />
        <path
           sodipodi:nodetypes="cc"
           inkscape:connector-curvature="0"
           id="path5998"
           d="m 637.14286,359.50504 c 9.08683,6.66667 5.85045,13.33333 28.57143,20"
           style="fill:none;stroke:#000000;stroke-width:9.92125988;stroke-linecap:butt;stroke-linejoin:miter;stroke-miterlimit:4;stroke-opacity:1;stroke-dasharray:none" />
        <path
           sodipodi:nodetypes="ccc"
           inkscape:connector-curvature="0"
           id="path6006"
           d="m 678.57143,288.07647 12.85714,-10 c 4.59774,4.39516 8.08329,9.53177 1.42857,21.42857"
           style="fill:none;stroke:#000000;stroke-width:7.08661413;stroke-linecap:butt;stroke-linejoin:miter;stroke-miterlimit:4;stroke-opacity:1;stroke-dasharray:none" />
        <path
           sodipodi:nodetypes="cc"
           inkscape:connector-curvature="0"
           id="path6002"
           d="m 498.57143,295.21933 c -26.13176,-9.16721 -18.16135,6.30512 -22.85714,11.42856"
           style="fill:none;stroke:#000000;stroke-width:7.08661413;stroke-linecap:butt;stroke-linejoin:miter;stroke-miterlimit:4;stroke-opacity:1;stroke-dasharray:none" />
        <path
           id="path3017"
           sodipodi:nodetypes="cc"
           inkscape:connector-curvature="0"
           d="m 390,136.6479 c 11.86442,23.24184 12.47986,28.5653 28.57143,37.14285"
           style="fill:none;stroke:#000000;stroke-width:10.62992096;stroke-linecap:round;stroke-linejoin:miter;stroke-miterlimit:4;stroke-opacity:1;stroke-dasharray:none" />
        <path
           sodipodi:nodetypes="cc"
           inkscape:connector-curvature="0"
           id="path3856"
           d="m 437.14286,166.6479 c 62.17948,31.28537 96.811,18.29206 131.42856,-11.42858"
           style="fill:none;stroke:#000000;stroke-width:10.62992096;stroke-linecap:round;stroke-linejoin:miter;stroke-miterlimit:4;stroke-opacity:1;stroke-dasharray:none" />
        <path
           sodipodi:nodetypes="cc"
           inkscape:connector-curvature="0"
           id="path3858"
           d="m 444.28571,205.21933 c 30.95238,13.13692 61.90477,14.94453 92.85715,1.42857"
           style="fill:none;stroke:#000000;stroke-width:7.08661413;stroke-linecap:butt;stroke-linejoin:miter;stroke-miterlimit:4;stroke-opacity:1;stroke-dasharray:none" />
        <path
           inkscape:connector-curvature="0"
           id="path3860"
           d="m 370.67245,259.30626 c -4.71429,-0.72792 -11.24712,-0.99099 -14.51741,-0.58461 l -5.94598,0.73887 3.3945,-6.07341 c 4.86647,-8.70706 7.31014,-21.04202 9.91043,-50.02502 2.51777,-28.06317 5.43145,-38.82328 11.89179,-43.91583 l 3.8381,-3.02549 1.0204,14.0644 c 0.56122,7.73542 1.35144,20.8144 1.75605,29.0644 0.64606,13.17335 1.48767,23.99045 4.19582,53.92857 0.77681,8.58758 1.2292,8.41796 -15.5437,5.82812 z"
           style="fill:#cc4f25;fill-opacity:0.68333333;fill-rule:nonzero;stroke:#000000;stroke-width:10.12373447;stroke-linecap:round;stroke-linejoin:round;stroke-miterlimit:4;stroke-opacity:1;stroke-dasharray:none" />
        <path
           sodipodi:nodetypes="ccc"
           inkscape:connector-curvature="0"
           id="path3862"
           d="m 457.14286,75.219325 c 14.51051,-6.228547 31.25595,-11.06027 75.71428,1.428572 l 0,0"
           style="fill:none;stroke:#000000;stroke-width:9.92125988;stroke-linecap:butt;stroke-linejoin:miter;stroke-miterlimit:4;stroke-opacity:1;stroke-dasharray:none" />
        <path
           inkscape:connector-curvature="0"
           id="path3864"
           d="m 561.42857,290.93361 -7.14286,20"
           style="fill:none;stroke:#000000;stroke-width:10.62992096;stroke-linecap:butt;stroke-linejoin:miter;stroke-miterlimit:4;stroke-opacity:1;stroke-dasharray:none" />
      </g>
      <g
         style="opacity:0.5078125;display:none"
         id="layer1-5"
         inkscape:label="Matrice">
        <image
           width="726.14288"
           height="551.30707"
           xlink:href="file:///home/thomas/Images/Mes%20dessins/Infographie/Jeu%20bi%C3%A8re/boit2.png"
           id="image5354"
           x="9.7857227"
           y="7.7907629" />
      </g>
    </g>
  </g>
</svg>
