<?xml version="1.0" encoding="UTF-8" standalone="no"?>
<!-- Created with Inkscape (http://www.inkscape.org/) -->

<svg
   xmlns:dc="http://purl.org/dc/elements/1.1/"
   xmlns:cc="http://creativecommons.org/ns#"
   xmlns:rdf="http://www.w3.org/1999/02/22-rdf-syntax-ns#"
   xmlns:svg="http://www.w3.org/2000/svg"
   xmlns="http://www.w3.org/2000/svg"
   version="1.0"
   width="32"
   height="20"
   id="svg2">
  <metadata
     id="metadata7">
    <rdf:RDF>
      <cc:Work
         rdf:about="">
        <dc:format>image/svg+xml</dc:format>
        <dc:type
           rdf:resource="http://purl.org/dc/dcmitype/StillImage" />
        <dc:title></dc:title>
      </cc:Work>
    </rdf:RDF>
  </metadata>
  <g
     transform="matrix(0.04320988,0,0,0.04322767,5.4891975,2.4891916)"
     id="symbol">
    <g>
      <path
         d="m 486.25,4.25 c 0,3 0,6 0,9 -14.15,31.03 -30.58,72.23 -46,109 -3.52,8.39 -8.83,31.86 -20,31 -9.24,-0.71 -14.1,-24.24 -17,-33 -4.94,-14.93 -7.62,-25.51 -12,-38 -50.74,20.65 -87.69,53.67 -86,122 1.34,54.26 21.16,99.67 33,143 -49.33,0 -98.67,0 -148,0 -4.55,-115.45 -8.99,-231.01 -13,-347 17,0 34,0 51,0 11.73,38.61 24.47,76.2 36,115 25.44,-24.63 60.55,-50.85 103,-63 -6.69,-8.75 -16.41,-15.01 -25,-22 -7.83,-6.37 -20.32,-12.24 -20,-26 1.99,-0.68 2.29,-3.05 4,-4 52,0 104,0 156,0 0.44,1.23 1.28,2.05 3,2 -0.16,1.16 0.22,1.78 1,2 z"
         id="path4826"
         style="fill:#000000" />
      <path
         d="m 111.25,0.25 c 17,0 34,0 51,0 -4.53,115.47 -8.94,231.06 -13,347 -49.67,0 -99.33,0 -149,0 0,-1 0,-2 0,-3 37.73,-113.94 73.56,-229.77 111,-344 z"
         id="path4828"
         style="fill:#000000" />
    </g>
  </g>
</svg>
