<?xml version="1.0" encoding="UTF-8" standalone="no"?>
<!-- Generator: Adobe Illustrator 12.0.0, SVG Export Plug-In . SVG Version: 6.00 Build 51448)  -->

<svg
   xmlns:dc="http://purl.org/dc/elements/1.1/"
   xmlns:cc="http://creativecommons.org/ns#"
   xmlns:rdf="http://www.w3.org/1999/02/22-rdf-syntax-ns#"
   xmlns:svg="http://www.w3.org/2000/svg"
   xmlns="http://www.w3.org/2000/svg"
   xmlns:xlink="http://www.w3.org/1999/xlink"
   xmlns:sodipodi="http://sodipodi.sourceforge.net/DTD/sodipodi-0.dtd"
   xmlns:inkscape="http://www.inkscape.org/namespaces/inkscape"
   version="1.1"
   id="Calque_1"
   width="759.255"
   height="759.854"
   viewBox="0 0 759.255 759.854"
   overflow="visible"
   enable-background="new 0 0 759.255 759.854"
   xml:space="preserve"
   inkscape:version="0.48.5 r10040"
   sodipodi:docname="flaque.svg"><metadata
   id="metadata63"><rdf:RDF><cc:Work
       rdf:about=""><dc:format>image/svg+xml</dc:format><dc:type
         rdf:resource="http://purl.org/dc/dcmitype/StillImage" /></cc:Work></rdf:RDF></metadata><defs
   id="defs61"><linearGradient
     id="linearGradient3808"><stop
       style="stop-color:#f2dd00;stop-opacity:1;"
       offset="0"
       id="stop3810" /><stop
       style="stop-color:#bf6d00;stop-opacity:1;"
       offset="1"
       id="stop3812" /></linearGradient><radialGradient
     inkscape:collect="always"
     xlink:href="#linearGradient3808"
     id="radialGradient3814"
     cx="379.62801"
     cy="379.92655"
     fx="379.62801"
     fy="379.92655"
     r="381.12733"
     gradientTransform="matrix(1,0,0,1.000787,0,-0.29899116)"
     gradientUnits="userSpaceOnUse" /></defs><sodipodi:namedview
   pagecolor="#ffffff"
   bordercolor="#666666"
   borderopacity="1"
   objecttolerance="10"
   gridtolerance="10"
   guidetolerance="10"
   inkscape:pageopacity="0"
   inkscape:pageshadow="2"
   inkscape:window-width="1846"
   inkscape:window-height="1058"
   id="namedview59"
   showgrid="false"
   inkscape:zoom="0.31058598"
   inkscape:cx="-122.64887"
   inkscape:cy="379.927"
   inkscape:window-x="1912"
   inkscape:window-y="-8"
   inkscape:window-maximized="1"
   inkscape:current-layer="Calque_1" />
<g
   id="g3"
   style="fill:url(#radialGradient3814);fill-opacity:1;stroke:#000000;stroke-width:3;stroke-linejoin:round;stroke-miterlimit:4;stroke-opacity:1;stroke-dasharray:none"
   transform="matrix(0.62906762,0.87409178,-0.77735058,0.70735502,416.83412,-263.33434)">
	<path
   clip-rule="evenodd"
   d="m 642.761,7.857 c 27.524,-13.874 20.688,-7.637 36.396,5.242 21.389,17.531 -47.403,113.702 -85.56,101.273 3.612,-48.277 34.674,-99.213 49.164,-106.515 z"
   id="path5"
   style="fill:url(#radialGradient3814);fill-opacity:1;fill-rule:evenodd;stroke:#000000;stroke-width:3;stroke-linejoin:round;stroke-miterlimit:4;stroke-opacity:1;stroke-dasharray:none"
   inkscape:connector-curvature="0" />
	<path
   clip-rule="evenodd"
   d="m 388.764,16.05 c 10.221,28.978 21.564,101.561 -24.58,98.322 C 347.148,88.668 329.25,7.829 388.764,16.05 z"
   id="path7"
   style="fill:url(#radialGradient3814);fill-opacity:1;fill-rule:evenodd;stroke:#000000;stroke-width:3;stroke-linejoin:round;stroke-miterlimit:4;stroke-opacity:1;stroke-dasharray:none"
   inkscape:connector-curvature="0" />
	<path
   clip-rule="evenodd"
   d="m 303.417,128.713 c -9.341,33.239 -52.357,26.405 -65.547,0 -28.783,-57.622 82.512,-60.348 65.547,0 z"
   id="path9"
   style="fill:url(#radialGradient3814);fill-opacity:1;fill-rule:evenodd;stroke:#000000;stroke-width:3;stroke-linejoin:round;stroke-miterlimit:4;stroke-opacity:1;stroke-dasharray:none"
   inkscape:connector-curvature="0" />
	<path
   clip-rule="evenodd"
   d="m 519.854,524.039 c -24.021,-0.559 -30.431,-18.727 -40.963,-32.773 -15.603,3.518 -20.585,17.65 -40.968,16.385 -21.542,-2.428 -6.449,31.787 -32.771,24.582 8.412,-27.529 -25.482,-12.754 -40.968,-16.387 -12.178,6.941 -11.856,26.383 -16.386,40.969 -14.608,-19.396 16.189,-66.479 -40.968,-57.357 -1.641,-31.131 -34.453,-31.09 -32.772,-65.547 -50.24,12.574 -80.853,44.779 -131.094,57.355 26.667,-44.338 87.719,-54.301 131.094,-81.934 -5.64,-32.949 7.849,-46.771 8.193,-73.74 -16.702,-18.804 -68.042,-2.965 -98.322,-8.193 21.309,-16.93 59.1,-17.375 98.322,-16.386 23.035,-10.227 27.083,-33.584 16.386,-57.354 10.475,0.45 11.347,10.5 24.579,8.193 2.721,-32.761 -14.605,-45.48 -8.193,-81.933 21.864,5.446 30.003,24.619 40.968,40.965 10.298,-3.356 16.748,-10.566 16.386,-24.579 6.384,1.809 9.526,6.86 8.193,16.386 84.084,-14.181 16.603,-172.281 114.705,-131.093 16.984,7.13 16.283,16.491 16.386,32.775 -3.441,15.665 -2.963,35.265 -24.576,32.772 -7.125,8.614 -11.859,18.676 -24.582,32.775 51.397,11.42 94.795,30.834 106.515,81.933 32.949,5.641 46.771,-7.848 73.743,-8.193 -13.629,21.878 -56.536,14.474 -73.743,32.772 -1.532,68.441 5.806,95.405 -32.777,122.901 1.401,12.258 -2.917,30.236 8.198,32.771 -11.423,13.158 -40.435,8.727 -49.163,24.582 8.42,18.886 28.207,26.419 24.578,57.353 z"
   id="path11"
   style="fill:url(#radialGradient3814);fill-opacity:1;fill-rule:evenodd;stroke:#000000;stroke-width:3;stroke-linejoin:round;stroke-miterlimit:4;stroke-opacity:1;stroke-dasharray:none"
   inkscape:connector-curvature="0" />
	<path
   clip-rule="evenodd"
   d="m 560.825,147.145 c 30.293,24.84 -24.882,27.601 0,0 l 0,0 z"
   id="path13"
   style="fill:url(#radialGradient3814);fill-opacity:1;fill-rule:evenodd;stroke:#000000;stroke-width:3;stroke-linejoin:round;stroke-miterlimit:4;stroke-opacity:1;stroke-dasharray:none"
   inkscape:connector-curvature="0" />
	<path
   clip-rule="evenodd"
   d="m 749.27,220.884 c 17.286,2.513 8.66,15.924 0,16.389 -8.66,0.461 -23.257,1.407 -24.579,-8.196 1.378,-9.543 7.292,-10.705 24.579,-8.193 z"
   id="path15"
   style="fill:url(#radialGradient3814);fill-opacity:1;fill-rule:evenodd;stroke:#000000;stroke-width:3;stroke-linejoin:round;stroke-miterlimit:4;stroke-opacity:1;stroke-dasharray:none"
   inkscape:connector-curvature="0" />
	<path
   clip-rule="evenodd"
   d="m 708.305,237.273 c 1.556,-9.304 8.222,-4.549 8.193,0 -1.556,9.301 -8.222,4.547 -8.193,0 z"
   id="path17"
   style="fill:url(#radialGradient3814);fill-opacity:1;fill-rule:evenodd;stroke:#000000;stroke-width:3;stroke-linejoin:round;stroke-miterlimit:4;stroke-opacity:1;stroke-dasharray:none"
   inkscape:connector-curvature="0" />
	<path
   clip-rule="evenodd"
   d="m 183.93,327.399 c 0.834,9.902 -11.908,5.037 0,0 l 0,0 z"
   id="path19"
   style="fill:url(#radialGradient3814);fill-opacity:1;fill-rule:evenodd;stroke:#000000;stroke-width:3;stroke-linejoin:round;stroke-miterlimit:4;stroke-opacity:1;stroke-dasharray:none"
   inkscape:connector-curvature="0" />
	<path
   clip-rule="evenodd"
   d="m 85.611,335.592 c 3.008,24.861 -26.687,17.007 -40.968,24.579 -1.188,-23.035 20.069,-23.63 40.968,-24.579 z"
   id="path21"
   style="fill:url(#radialGradient3814);fill-opacity:1;fill-rule:evenodd;stroke:#000000;stroke-width:3;stroke-linejoin:round;stroke-miterlimit:4;stroke-opacity:1;stroke-dasharray:none"
   inkscape:connector-curvature="0" />
	<path
   clip-rule="evenodd"
   d="m 642.761,360.171 c 0.217,-9.093 45.956,-3.205 65.544,-8.193 -2.609,21.727 46.896,10.463 32.771,24.583 -14.802,15.484 -98.532,-7.297 -98.315,-16.39 z"
   id="path23"
   style="fill:url(#radialGradient3814);fill-opacity:1;fill-rule:evenodd;stroke:#000000;stroke-width:3;stroke-linejoin:round;stroke-miterlimit:4;stroke-opacity:1;stroke-dasharray:none"
   inkscape:connector-curvature="0" />
	<path
   clip-rule="evenodd"
   d="m 199.897,398.458 c -12.073,32.979 -66.239,39.39 -68.1,-9.286 -1.854,-48.68 80.176,-23.691 68.1,9.286 z"
   id="path25"
   style="fill:url(#radialGradient3814);fill-opacity:1;fill-rule:evenodd;stroke:#000000;stroke-width:3;stroke-linejoin:round;stroke-miterlimit:4;stroke-opacity:1;stroke-dasharray:none"
   inkscape:connector-curvature="0" />
	<path
   clip-rule="evenodd"
   d="m 642.761,458.492 c 17.845,3.156 22.146,16.09 24.579,32.773 31.985,-16.23 70.102,20.02 65.544,40.967 -4.559,20.947 -37.74,31.988 -49.158,8.193 3.703,27.465 -35.017,31.943 -49.158,32.775 -6.717,0.387 -26.334,-3.59 -24.579,-24.58 -24.311,-3.002 -42.555,0.217 -49.163,-32.775 -6.61,-32.993 34.355,-65.767 81.935,-57.353 z"
   id="path27"
   style="fill:url(#radialGradient3814);fill-opacity:1;fill-rule:evenodd;stroke:#000000;stroke-width:3;stroke-linejoin:round;stroke-miterlimit:4;stroke-opacity:1;stroke-dasharray:none"
   inkscape:connector-curvature="0" />
	<path
   clip-rule="evenodd"
   d="m 142.964,491.266 c 0.832,9.9 -11.91,5.035 0,0 l 0,0 z"
   id="path29"
   style="fill:url(#radialGradient3814);fill-opacity:1;fill-rule:evenodd;stroke:#000000;stroke-width:3;stroke-linejoin:round;stroke-miterlimit:4;stroke-opacity:1;stroke-dasharray:none"
   inkscape:connector-curvature="0" />
	<path
   clip-rule="evenodd"
   d="m 298.637,507.65 c 0.464,-4.996 1.225,-9.697 8.193,-8.193 -0.464,4.998 -1.225,9.697 -8.193,8.193 z"
   id="path31"
   style="fill:url(#radialGradient3814);fill-opacity:1;fill-rule:evenodd;stroke:#000000;stroke-width:3;stroke-linejoin:round;stroke-miterlimit:4;stroke-opacity:1;stroke-dasharray:none"
   inkscape:connector-curvature="0" />
	<path
   clip-rule="evenodd"
   d="m 290.444,515.846 c 0.464,-4.998 1.225,-9.699 8.193,-8.195 -0.464,4.995 -1.224,9.701 -8.193,8.195 z"
   id="path33"
   style="fill:url(#radialGradient3814);fill-opacity:1;fill-rule:evenodd;stroke:#000000;stroke-width:3;stroke-linejoin:round;stroke-miterlimit:4;stroke-opacity:1;stroke-dasharray:none"
   inkscape:connector-curvature="0" />
	<path
   clip-rule="evenodd"
   d="m 101.997,540.426 c -3.196,13.438 -27.527,6.361 -32.772,-8.193 -5.245,-14.561 35.968,-5.245 32.772,8.193 z"
   id="path35"
   style="fill:url(#radialGradient3814);fill-opacity:1;fill-rule:evenodd;stroke:#000000;stroke-width:3;stroke-linejoin:round;stroke-miterlimit:4;stroke-opacity:1;stroke-dasharray:none"
   inkscape:connector-curvature="0" />
	<path
   clip-rule="evenodd"
   d="m 290.444,515.846 c 0.832,9.9 -11.91,5.037 0,0 l 0,0 z"
   id="path37"
   style="fill:url(#radialGradient3814);fill-opacity:1;fill-rule:evenodd;stroke:#000000;stroke-width:3;stroke-linejoin:round;stroke-miterlimit:4;stroke-opacity:1;stroke-dasharray:none"
   inkscape:connector-curvature="0" />
	<path
   clip-rule="evenodd"
   d="m 519.854,524.039 c 9.903,-0.832 5.037,11.908 0,0 l 0,0 z"
   id="path39"
   style="fill:url(#radialGradient3814);fill-opacity:1;fill-rule:evenodd;stroke:#000000;stroke-width:3;stroke-linejoin:round;stroke-miterlimit:4;stroke-opacity:1;stroke-dasharray:none"
   inkscape:connector-curvature="0" />
	<path
   clip-rule="evenodd"
   d="m 3.678,573.201 c -3.196,-5.688 -6.361,-5.926 0,-16.387 6.361,-10.461 67.646,-29.844 57.354,16.387 -5.495,29.785 -54.158,5.68 -57.354,0 z"
   id="path41"
   style="fill:url(#radialGradient3814);fill-opacity:1;fill-rule:evenodd;stroke:#000000;stroke-width:3;stroke-linejoin:round;stroke-miterlimit:4;stroke-opacity:1;stroke-dasharray:none"
   inkscape:connector-curvature="0" />
	<path
   clip-rule="evenodd"
   d="m 405.152,556.814 c 2.823,-9.891 21.799,-6.627 24.579,0 7.429,17.719 -30.005,18.985 -24.579,0 z"
   id="path43"
   style="fill:url(#radialGradient3814);fill-opacity:1;fill-rule:evenodd;stroke:#000000;stroke-width:3;stroke-linejoin:round;stroke-miterlimit:4;stroke-opacity:1;stroke-dasharray:none"
   inkscape:connector-curvature="0" />
	<path
   clip-rule="evenodd"
   d="m 667.34,573.201 c 11.993,7.121 27.775,24.111 24.579,32.771 -3.196,8.66 -21.389,16.602 -32.772,0 -11.395,-16.607 5.618,-21.695 8.193,-32.771 z"
   id="path45"
   style="fill:url(#radialGradient3814);fill-opacity:1;fill-rule:evenodd;stroke:#000000;stroke-width:3;stroke-linejoin:round;stroke-miterlimit:4;stroke-opacity:1;stroke-dasharray:none"
   inkscape:connector-curvature="0" />
	<path
   clip-rule="evenodd"
   d="m 749.27,622.359 c 5.003,5.24 4.313,7.291 0,8.191 -9.64,-1.287 -23.257,1.414 -24.579,-8.191 11.691,-3.191 19.587,-5.242 24.579,0 z"
   id="path47"
   style="fill:url(#radialGradient3814);fill-opacity:1;fill-rule:evenodd;stroke:#000000;stroke-width:3;stroke-linejoin:round;stroke-miterlimit:4;stroke-opacity:1;stroke-dasharray:none"
   inkscape:connector-curvature="0" />
	<path
   clip-rule="evenodd"
   d="m 347.798,646.938 c 14.554,8.66 18.898,32.994 0,32.771 -18.899,-0.217 -14.554,-41.432 0,-32.771 z"
   id="path49"
   style="fill:url(#radialGradient3814);fill-opacity:1;fill-rule:evenodd;stroke:#000000;stroke-width:3;stroke-linejoin:round;stroke-miterlimit:4;stroke-opacity:1;stroke-dasharray:none"
   inkscape:connector-curvature="0" />
	<path
   clip-rule="evenodd"
   d="m 577.211,646.938 c 12.928,14.381 37.62,17.002 40.971,40.965 -30.243,2.933 -34.243,-20.376 -40.971,-40.965 z"
   id="path51"
   style="fill:url(#radialGradient3814);fill-opacity:1;fill-rule:evenodd;stroke:#000000;stroke-width:3;stroke-linejoin:round;stroke-miterlimit:4;stroke-opacity:1;stroke-dasharray:none"
   inkscape:connector-curvature="0" />
	<path
   clip-rule="evenodd"
   d="m 175.736,679.709 c -0.831,-9.902 11.911,-5.035 0,0 l 0,0 z"
   id="path53"
   style="fill:url(#radialGradient3814);fill-opacity:1;fill-rule:evenodd;stroke:#000000;stroke-width:3;stroke-linejoin:round;stroke-miterlimit:4;stroke-opacity:1;stroke-dasharray:none"
   inkscape:connector-curvature="0" />
	<path
   clip-rule="evenodd"
   d="m 175.736,679.709 c -1,20.854 -19.334,40.51 -32.772,32.773 -13.437,-7.726 7.122,-36.568 32.772,-32.773 z"
   id="path55"
   style="fill:url(#radialGradient3814);fill-opacity:1;fill-rule:evenodd;stroke:#000000;stroke-width:3;stroke-linejoin:round;stroke-miterlimit:4;stroke-opacity:1;stroke-dasharray:none"
   inkscape:connector-curvature="0" />
	<path
   clip-rule="evenodd"
   d="m 126.579,753.453 c -7.296,8.654 -15.924,8.414 -24.582,0 -8.657,-8.416 -11.982,-46.715 16.386,-40.971 20.85,0.831 15.489,32.315 8.196,40.971 z"
   id="path57"
   style="fill:url(#radialGradient3814);fill-opacity:1;fill-rule:evenodd;stroke:#000000;stroke-width:3;stroke-linejoin:round;stroke-miterlimit:4;stroke-opacity:1;stroke-dasharray:none"
   inkscape:connector-curvature="0" />
</g>
</svg>